<svg xmlns="http://www.w3.org/2000/svg" width="23.855" height="21.166" viewBox="0 0 23.855 21.166">
  <g id="Group_17746" data-name="Group 17746" transform="translate(-1553.229 -74.335)">
    <g id="Group_17438" data-name="Group 17438" transform="translate(1553.229 74.335)">
      <g id="shopping-cart_2_" data-name="shopping-cart (2)" transform="translate(0 0)">
        <path id="Path_35228" data-name="Path 35228" d="M181,393.1a2.1,2.1,0,1,0,2.1-2.1A2.1,2.1,0,0,0,181,393.1Zm2.1-.7a.7.7,0,1,1-.7.7A.7.7,0,0,1,183.1,392.4Z" transform="translate(-172.567 -374.231)" stroke="#fab528" stroke-width="0.4"/>
        <path id="Path_35229" data-name="Path 35229" d="M332,393.1a2.1,2.1,0,1,0,2.1-2.1A2.1,2.1,0,0,0,332,393.1Zm2.1-.7a.7.7,0,1,1-.7.7A.7.7,0,0,1,334.1,392.4Z" transform="translate(-316.532 -374.231)" stroke="#fab528" stroke-width="0.4"/>
        <path id="Path_35230" data-name="Path 35230" d="M23.156,33.8H5.466l-.654-2.289A.7.7,0,0,0,4.14,31H.7a.7.7,0,1,0,0,1.4H3.613L6.988,44.213l-.265.53A2.1,2.1,0,0,0,8.6,47.777H20.36a.7.7,0,0,0,0-1.4H8.6a.7.7,0,0,1-.625-1.011l.193-.386H20.36a.7.7,0,0,0,.672-.507l2.8-9.784A.7.7,0,0,0,23.156,33.8Zm-3.323,9.784H8.261L5.865,35.2H22.229Z" transform="translate(0 -31.004)"/>
      </g>
    </g>
  </g>
</svg>
