<svg xmlns="http://www.w3.org/2000/svg" width="33.485" height="29.429" viewBox="0 0 33.485 29.429">
  <g id="Group_17733" data-name="Group 17733" transform="translate(0 0)">
    <g id="Group_17438" data-name="Group 17438" transform="translate(0 0)">
      <g id="shopping-cart_2_" data-name="shopping-cart (2)">
        <path id="Path_35228" data-name="Path 35228" d="M181,393.947A2.943,2.943,0,1,0,183.943,391,2.946,2.946,0,0,0,181,393.947Zm2.943-.981a.981.981,0,1,1-.981.981A.982.982,0,0,1,183.943,392.966Z" transform="translate(-169.163 -367.461)" fill="#1d1d1d"/>
        <path id="Path_35229" data-name="Path 35229" d="M332,393.947A2.943,2.943,0,1,0,334.943,391,2.946,2.946,0,0,0,332,393.947Zm2.943-.981a.981.981,0,1,1-.981.981A.982.982,0,0,1,334.943,392.966Z" transform="translate(-310.288 -367.461)" fill="#1d1d1d"/>
        <path id="Path_35230" data-name="Path 35230" d="M32.5,34.928H7.672l-.918-3.212A.981.981,0,0,0,5.811,31H.981a.981.981,0,1,0,0,1.962h4.09L9.808,49.545l-.372.743a2.943,2.943,0,0,0,2.632,4.259h16.51a.981.981,0,1,0,0-1.962H12.069a.981.981,0,0,1-.877-1.42l.271-.542H28.579a.981.981,0,0,0,.943-.711l3.924-13.734A.981.981,0,0,0,32.5,34.928ZM27.839,48.662H11.6L8.233,36.89H31.2Z" transform="translate(0 -31.004)" fill="#1d1d1d"/>
      </g>
    </g>
  </g>
</svg>
