<svg xmlns="http://www.w3.org/2000/svg" width="124.547" height="92.62" viewBox="0 0 124.547 92.62">
  <g id="Group_21192" data-name="Group 21192" transform="translate(-792.727 -1237)">
    <path id="Path_36450" data-name="Path 36450" d="M896.38,1150.859s14.988,43.662,89.931,15.966c25.325-9.359,28.348-18.9,28.348-18.9s11.4,23.786-48.55,40.078S889.211,1160.96,896.38,1150.859Z" transform="translate(-101.182 137.992)" fill="#fab528"/>
    <g id="noun-meat-1299799" transform="translate(792.727 1237)">
      <path id="Path_36431" data-name="Path 36431" d="M99.373,170.939a77,77,0,0,0,18.225,2.027,122.867,122.867,0,0,0,31.041-4.3c35.552-10.087,47.318-28.469,45.494-35.572l-.691-2.957a17.031,17.031,0,0,0,.317-13.366A16.394,16.394,0,0,0,183.4,107.3a2.475,2.475,0,0,0-.546-.1l.016-.057c-.447-.124-.961-.26-1.476-.39a89.883,89.883,0,0,0-14.442-1.9,87.853,87.853,0,0,1-13.985-1.83c-6.735-1.657-12.971-4.635-19-7.52a116.1,116.1,0,0,0-16.812-6.958c-.66-.189-1.31-.366-1.949-.522A35.594,35.594,0,0,0,77.13,102.8a36.5,36.5,0,0,0-6.257,18.871,2.132,2.132,0,0,0-.119.608l-.327,15.612A34.022,34.022,0,0,0,72.874,150c4.24,10.627,13.158,17.67,26.5,20.938ZM80.57,105.13A31.347,31.347,0,0,1,106.4,91.1a33,33,0,0,1,7.821.967c.566.14,1.148.3,1.73.468a110.74,110.74,0,0,1,16.209,6.724c6.221,2.973,12.654,6.044,19.805,7.8A91.126,91.126,0,0,0,166.626,109a86.092,86.092,0,0,1,13.782,1.8c.463.109.914.229,1.736.473a12.286,12.286,0,0,1,7.759,7.073,12.842,12.842,0,0,1-.473,10.7,11.6,11.6,0,0,1-3.835,4.293,133.338,133.338,0,0,1-37.741,17.218,117.252,117.252,0,0,1-29.9,4.126,73,73,0,0,1-17.253-1.891c-11.964-2.926-19.915-9.131-23.636-18.433a31.375,31.375,0,0,1,3.5-29.224Zm-5.856,33.93c4.672,8.856,13.044,14.837,25,17.768a77.251,77.251,0,0,0,18.246,2.006,120.628,120.628,0,0,0,31.01-4.277A137.57,137.57,0,0,0,187.9,136.8a15.955,15.955,0,0,0,2.255-1.959c-.151,4.8-9.375,20.382-42.63,29.826-12.795,3.534-31.9,5.976-47.158,2.235-11.958-2.926-19.91-9.131-23.631-18.439a29.42,29.42,0,0,1-2.021-9.4Z" transform="translate(-70.426 -86.989)"/>
      <path id="Path_36432" data-name="Path 36432" d="M213.541,186.041l-11.075,15.29a2.08,2.08,0,0,0,3.372,2.437l11.382-15.715,39.725,2.6a1.215,1.215,0,0,0,.135.005,2.079,2.079,0,0,0,.135-4.153l-40.026-2.62-12.036-13.538a2.078,2.078,0,1,0-3.108,2.759Z" transform="translate(-172.321 -151.242)"/>
    </g>
  </g>
</svg>
