<svg xmlns="http://www.w3.org/2000/svg" width="77.86" height="96.359" viewBox="0 0 77.86 96.359">
  <g id="Group_21193" data-name="Group 21193" transform="translate(-1116.87 -1232)">
    <path id="Path_36451" data-name="Path 36451" d="M1273.468,866.786l-10.986,16.586v66.56h20.248v-66.56Z" transform="translate(-88 376)" fill="#fab528"/>
    <g id="noun-pet-food-1517942" transform="translate(920.686 1151.593)">
      <path id="Path_36433" data-name="Path 36433" d="M270.443,114.776v-6.369l-10.188-16.7V84.886l-5.745-4.479-4.9,3.5L246.2,81.461l-1.432-1.018-4.823,3.451-4.682-3.449L230.172,83.9l-4.566-3.466L220.5,83.9l-4.565-3.466-6.471,4.381V91.9l-13.279,16.412v68.455h74.258V119.88H267.8v54.242H250.066V110.1H267.8v4.679ZM212.1,86.215l3.742-2.536,4.566,3.467,5.107-3.464,4.565,3.466,5.119-3.47,4.724,3.479,4.848-3.471,4.833,3.468,4.833-3.454,3.174,2.474v4.584l-45.511,0Zm35.324,81.98h-7.868v2.64h7.868v3.289h-48.6v-3.289h37.159V168.2H198.826V110.1h48.6Zm.579-60.738H200.272L211.645,93.4h44.939Zm3.093,0,7.837-12.842,7.837,12.842Z"/>
      <path id="Path_36434" data-name="Path 36434" d="M454.18,400.22h7.478v2.64H454.18Z" transform="translate(-195.719 -242.614)"/>
      <path id="Path_36435" data-name="Path 36435" d="M454.18,422.16h7.478v2.64H454.18Z" transform="translate(-195.719 -259.259)"/>
      <path id="Path_36436" data-name="Path 36436" d="M454.18,444.09h7.478v2.64H454.18Z" transform="translate(-195.719 -275.895)"/>
      <path id="Path_36437" data-name="Path 36437" d="M219.439,269.667a6.663,6.663,0,0,0,6.606,6.653v0c.01,0,.019,0,.026,0l.024,0v0a6.717,6.717,0,0,0,1.047-.091,18.742,18.742,0,0,0,22.7,4.689,18.493,18.493,0,0,0,5.925-4.656c.142.01.287.018.432.019h.05a6.654,6.654,0,0,0,3.909-12,6.652,6.652,0,0,0-3.934-11.981v0h-.05v0l-.184.006a18.6,18.6,0,0,0-3.141-3.044l-1.6,2.1a16,16,0,0,1,1.89,1.7,6.663,6.663,0,0,0-3.559,5.533l-16.863.034a6.654,6.654,0,0,0-3.161-5.3,15.919,15.919,0,0,1,4.721-3.576,16.126,16.126,0,0,1,10.707-1.308,16.406,16.406,0,0,1,2.476.768l.981-2.452a19.039,19.039,0,0,0-2.877-.893,18.716,18.716,0,0,0-18.674,6.524,6.645,6.645,0,0,0-.768-.052v0l-.026,0-.024,0v0a6.653,6.653,0,0,0-3.934,11.983,6.653,6.653,0,0,0-2.7,5.347Zm29.222,8.89a16.109,16.109,0,0,1-18.91-3.365,6.649,6.649,0,0,0,2.939-5.164l16.916-.035a6.657,6.657,0,0,0,3.371,5.426,15.961,15.961,0,0,1-4.316,3.139Zm-22.567-12.9v-.006h.026v-2.64a4.022,4.022,0,1,1,3.9-3.3l-.283,1.561,22.824-.048-.282-1.552a4.312,4.312,0,0,1-.069-.739,3.991,3.991,0,1,1,3.965,4.035v2.64h.024v.006a4.015,4.015,0,1,1-3.963,4.032,4.362,4.362,0,0,1,.066-.739l.283-1.558-22.872.047.28,1.55a4.1,4.1,0,0,1,.069.742,3.991,3.991,0,1,1-3.965-4.035Z" transform="translate(-17.641 -125.176)"/>
    </g>
  </g>
</svg>
