<svg xmlns="http://www.w3.org/2000/svg" width="30.825" height="29" viewBox="0 0 30.825 29">
  <g id="Group_17730" data-name="Group 17730" transform="translate(-1327.731 -56.644)">
    <g id="noun-headset-3729722" transform="translate(1171.814 -40.767)">
      <path id="Path_36347" data-name="Path 36347" d="M183.874,110.183v-.229a12.544,12.544,0,0,0-25.087,0v.229a3.486,3.486,0,0,0-2.87,3.423v.956a3.484,3.484,0,0,0,2.9,3.426,1.68,1.68,0,0,0,1.654,1.407h1.609a1.683,1.683,0,0,0,1.681-1.681v-7.261a1.684,1.684,0,0,0-1.681-1.682h-1.609a1.677,1.677,0,0,0-.391.051,11.31,11.31,0,0,1,22.506,0,1.662,1.662,0,0,0-.391-.051h-1.609a1.683,1.683,0,0,0-1.681,1.682v7.261a1.683,1.683,0,0,0,1.681,1.681h1.609a1.6,1.6,0,0,0,.186-.019,5.442,5.442,0,0,1-5.172,3.771h-2.229c-.386-1.175-1.845-2.029-3.648-2.029-2.106,0-3.755,1.162-3.755,2.645s1.65,2.645,3.755,2.645c1.8,0,3.261-.854,3.647-2.028h2.229a6.669,6.669,0,0,0,6.653-6.394,3.485,3.485,0,0,0,2.883-3.425v-.956a3.485,3.485,0,0,0-2.869-3.424Zm-26.723,4.38v-.956a2.257,2.257,0,0,1,1.636-2.167v5.29A2.257,2.257,0,0,1,157.151,114.563Zm3.318-4.557h1.609a.449.449,0,0,1,.449.449v7.261a.449.449,0,0,1-.449.449h-1.609a.449.449,0,0,1-.449-.449v-7.26A.449.449,0,0,1,160.469,110.006Zm10.862,15.171c-1.487,0-2.523-.744-2.523-1.412s1.036-1.412,2.523-1.412,2.523.745,2.523,1.412S172.817,125.178,171.33,125.178Zm10.862-7.014h-1.609a.449.449,0,0,1-.449-.449v-7.261a.449.449,0,0,1,.449-.449h1.609a.449.449,0,0,1,.449.449v7.26a.449.449,0,0,1-.449.449Zm3.318-3.6a2.257,2.257,0,0,1-1.636,2.167v-5.29a2.257,2.257,0,0,1,1.636,2.167Z" transform="translate(0)" fill="#1d1d1d"/>
    </g>
  </g>
</svg>
