<svg xmlns="http://www.w3.org/2000/svg" width="17.612" height="25.048" viewBox="0 0 17.612 25.048">
  <g id="location_3_" data-name="location (3)" transform="translate(-76)">
    <path id="Path_36350" data-name="Path 36350" d="M84.2,24.721a.734.734,0,0,0,1.221,0c1.737-2.6,4.295-5.822,6.077-9.094a14.578,14.578,0,0,0,2.118-6.821A8.806,8.806,0,0,0,76,8.806a14.578,14.578,0,0,0,2.118,6.821C79.9,18.9,82.462,22.121,84.2,24.721Zm.611-23.253a7.346,7.346,0,0,1,7.338,7.338A13.206,13.206,0,0,1,90.2,14.925a92.3,92.3,0,0,1-5.4,8.086,92.3,92.3,0,0,1-5.4-8.086,13.206,13.206,0,0,1-1.939-6.119,7.346,7.346,0,0,1,7.338-7.338Z" fill="#1d1d1d"/>
    <path id="Path_36351" data-name="Path 36351" d="M170.4,98.806a4.4,4.4,0,1,0-4.4-4.4A4.408,4.408,0,0,0,170.4,98.806Zm0-7.338a2.935,2.935,0,1,1-2.935,2.935A2.939,2.939,0,0,1,170.4,91.468Z" transform="translate(-85.597 -85.597)" fill="#1d1d1d"/>
  </g>
</svg>
