<svg xmlns="http://www.w3.org/2000/svg" width="25.617" height="13.971" viewBox="0 0 25.617 13.971">
  <g id="noun-eye-585509" opacity="0.7">
    <path id="Path_50146" data-name="Path 50146" d="M116.385,145.6a15.579,15.579,0,0,0-12.7,6.64.582.582,0,0,0,0,.682,15.45,15.45,0,0,0,25.4,0,.582.582,0,0,0,0-.682A15.579,15.579,0,0,0,116.385,145.6Zm0,1.164a14.369,14.369,0,0,1,11.479,5.822,14.229,14.229,0,0,1-22.959,0A14.369,14.369,0,0,1,116.385,146.764Zm0,1.747a4.075,4.075,0,1,0,4.075,4.075A4.084,4.084,0,0,0,116.385,148.511Zm0,1.164a2.911,2.911,0,1,1-2.911,2.911A2.9,2.9,0,0,1,116.385,149.675Z" transform="translate(-103.576 -145.6)" fill="#535353"/>
  </g>
</svg>
