<svg xmlns="http://www.w3.org/2000/svg" width="84.885" height="97.4" viewBox="0 0 84.885 97.4">
  <g id="Group_21194" data-name="Group 21194" transform="translate(-1407.84 -1228.532)">
    <path id="Path_36453" data-name="Path 36453" d="M205.183,111.444a11.348,11.348,0,0,1-2.967-3.561,14.38,14.38,0,0,1-.9-4.041,87.926,87.926,0,0,1-.315-9.8l.092-18.881a1.664,1.664,0,0,0-.469-1.17,1.6,1.6,0,0,0-1.142-.486h-5.917a1.593,1.593,0,0,0-1.142.486,1.672,1.672,0,0,0-.469,1.17l.092,18.881a88.183,88.183,0,0,1-.315,9.8,14.488,14.488,0,0,1-.9,4.041,11.328,11.328,0,0,1-2.967,3.561,20.44,20.44,0,0,0-2.732,2.888c-3.582,4.9-3.569,11.541-3.559,16.388q.022,11.061.029,22.119a1.629,1.629,0,0,0,1.612,1.647h26.62a1.629,1.629,0,0,0,1.612-1.647q0-11.059.029-22.119c.01-4.847.024-11.486-3.559-16.388a20.288,20.288,0,0,0-2.732-2.888Zm-7.4-21.666h-2.529l.661,39.087.4,23.358ZM196.3,152.223c.622-.852-6.347-24.4-5.476-25.206,1.43-1.324.051,1.995.9,0,.719-1.69,2.385.462,2.55-1.06.369-3.409-2.042,2.321.209-.727l-.209.727,5.438.169-1.94-32.106a90.235,90.235,0,0,0,.335,10.181c.164,1.519-2.528,46.328-1.808,48.022.849,2,4.48-1.324,5.91,0,.87.805,2.344-.853,2.967,0,1.2,1.641,2.488-29.083,2.907-26.993H184.955a20.136,20.136,0,0,0,.309,2.009c.384-1.927,9.844,26.623,11.042,24.984Zm11.916-1.03h-23.4q0-4.965-.014-9.93h23.425q-.007,4.964-.013,9.93Zm.029-20.48c-.005,2.419-1.154,3.195-1.158,5.613l-22.269,4.937c0-2.419-.009,12.847-.014,10.429,0-1.915,5.886,2.268,6.02.53l17.42.617c.133,1.739.006-24.042,0-22.126Z" transform="translate(1226.271 1163.237)" fill="#fab528"/>
    <g id="noun-drink-1035423" transform="translate(1231.705 1155.029)">
      <path id="Path_36390" data-name="Path 36390" d="M210.587,119.135a13.719,13.719,0,0,1-3.646-4.283,16.982,16.982,0,0,1-1.106-4.86,103.508,103.508,0,0,1-.387-11.79l.113-22.708A1.982,1.982,0,0,0,203.58,73.5h-7.271a1.982,1.982,0,0,0-1.981,1.991l.113,22.708a103.807,103.807,0,0,1-.387,11.79,17.11,17.11,0,0,1-1.106,4.86,13.694,13.694,0,0,1-3.646,4.283,24.815,24.815,0,0,0-3.357,3.473c-4.4,5.9-4.386,13.88-4.374,19.71q.028,13.3.036,26.6a1.98,1.98,0,0,0,1.981,1.981H216.3a1.98,1.98,0,0,0,1.981-1.981q0-13.3.036-26.6c.012-5.83.029-13.814-4.373-19.71a24.629,24.629,0,0,0-3.357-3.474Zm-9-41.67-.058,11.651h-3.173L198.3,77.464Zm-12.472,47.515a21.452,21.452,0,0,1,2.844-2.908,16.857,16.857,0,0,0,4.62-5.639,20.664,20.664,0,0,0,1.412-6.006,106.521,106.521,0,0,0,.412-12.244l-.025-5.1h3.132l-.025,5.1a106.225,106.225,0,0,0,.412,12.244,20.629,20.629,0,0,0,1.412,6.006,16.838,16.838,0,0,0,4.62,5.639,21.47,21.47,0,0,1,2.844,2.908,16.658,16.658,0,0,1,2.841,6.775H186.276a16.694,16.694,0,0,1,2.842-6.774Zm25.2,41.963H185.567q0-5.971-.018-11.942h28.787q-.008,5.97-.017,11.942Zm.035-24.631q-.01,4.364-.013,8.726h-28.8q-.008-4.364-.013-8.726c-.006-2.3.033-4.5.2-6.594h28.43c.164,2.091.2,4.291.2,6.6Z" transform="translate(0 0)"/>
      <path id="Path_36391" data-name="Path 36391" d="M412.441,316.533a1.982,1.982,0,0,0-1.752-1.058H392.5a1.98,1.98,0,0,0-1.752,1.058c-2.257,4.287-5.066,9.622-4.748,15.27a10.1,10.1,0,0,0,1.8,5.513,11.876,11.876,0,0,0,6.6,4.085c.3.082.594.156.9.226a27.968,27.968,0,0,0,4.313.633v8.961H393.4a1.981,1.981,0,0,0,0,3.961H409.79a1.981,1.981,0,1,0,0-3.961h-6.214v-8.961a27.912,27.912,0,0,0,4.315-.634q.449-.1.9-.225a11.879,11.879,0,0,0,6.6-4.085,10.108,10.108,0,0,0,1.8-5.513c.316-5.649-2.493-10.984-4.752-15.27Zm-18.745,2.9h15.794a36,36,0,0,1,3.322,8.08H390.376a35.989,35.989,0,0,1,3.321-8.079Zm18.5,15.534a8.314,8.314,0,0,1-4.452,2.607q-.37.1-.741.186a24.163,24.163,0,0,1-5.4.612h-.018a24.071,24.071,0,0,1-5.395-.61q-.373-.086-.741-.186a8.307,8.307,0,0,1-4.455-2.607,6.273,6.273,0,0,1-1.041-3.391c0-.033,0-.066,0-.1h23.279c0,.033,0,.066,0,.1a6.276,6.276,0,0,1-1.04,3.389Z" transform="translate(-156.198 -184.906)"/>
    </g>
  </g>
</svg>
