<svg xmlns="http://www.w3.org/2000/svg" width="75.161" height="97.201" viewBox="0 0 75.161 97.201">
  <g id="Group_21191" data-name="Group 21191" transform="translate(-520.464 -1231)">
    <g id="Group_17736" data-name="Group 17736" transform="translate(5.089 -1)">
      <path id="Path_36447" data-name="Path 36447" d="M672.75,869.151,661.894,886.9v64.011l10.99-12.147Z" transform="translate(-93 377)" fill="#fab528"/>
      <path id="Path_36448" data-name="Path 36448" d="M662.059,869.221,672.884,886.9v64.011l-10.99-12.147Z" transform="translate(-82.348 377)" fill="#fab528"/>
      <path id="Path_36449" data-name="Path 36449" d="M661.894,951.292h22.089" transform="translate(-93.447 377)" fill="#fab528"/>
    </g>
    <g id="noun-dairy-4321671" transform="translate(368.087 1211.397)">
      <path id="Path_36355" data-name="Path 36355" d="M153.945,116.8h67.936a1.588,1.588,0,0,0,1.567-1.567V49.912a1.528,1.528,0,0,0-.2-.774L213,31.2V21.17A1.567,1.567,0,0,0,211.43,19.6H164.4a1.568,1.568,0,0,0-1.568,1.567V31.2L152.586,49.14h0a1.828,1.828,0,0,0-.209.784v65.314a1.568,1.568,0,0,0,1.568,1.567Zm55.917-79.276v64.121l-7.316,9.145V50.33Zm-5.624,76.141,7.191-8.988,7.191,8.988ZM220.313,50.33v60.431L213,101.616V37.527ZM165.964,22.738h43.9v7.316h-43.9Zm-.658,10.452h43.427l-8.665,15.156H156.652Zm34.1,18.29v62.188h-43.9V51.48ZM158.648,86.493V60.364a1.568,1.568,0,0,1,3.136,0V86.493a1.568,1.568,0,0,1-3.136,0Zm0,13.065v-7.2a1.568,1.568,0,0,1,3.136,0v7.2a1.568,1.568,0,0,1-3.136,0Z" transform="translate(0 0)"/>
    </g>
  </g>
</svg>
