<svg xmlns="http://www.w3.org/2000/svg" width="100.254" height="100.25" viewBox="0 0 100.254 100.25">
  <g id="noun-satisfaction-4428518" transform="translate(0)">
    <path id="Path_38569" data-name="Path 38569" d="M147.245,325.158a6.278,6.278,0,0,0-8-3.751L127.375,325.7a2.088,2.088,0,1,0,1.418,3.928l11.867-4.294a2.111,2.111,0,0,1,2.68,1.316l9.083,22.714a2.131,2.131,0,0,1-.069,1.648,2.069,2.069,0,0,1-1.186,1.09l-16.095,5.823a2.088,2.088,0,0,0,.708,4.052,2.057,2.057,0,0,0,.71-.125l16.1-5.823a6.232,6.232,0,0,0,3.551-3.254,6.325,6.325,0,0,0,.186-4.908Z" transform="translate(-125.996 -261.727)" fill="#347758"/>
    <path id="Path_38570" data-name="Path 38570" d="M328.951,344.462l-16.105,5.781a2.089,2.089,0,0,0,1.41,3.933l16.2-5.816a3.98,3.98,0,0,1,5,1.736,3.849,3.849,0,0,1,.284,3.143,3.893,3.893,0,0,1-2.162,2.345l-31.822,13.87a14.9,14.9,0,0,1-9.77.741l-16.661-4.417a2.089,2.089,0,1,0-1.069,4.039l16.658,4.417a19.125,19.125,0,0,0,12.511-.951l31.817-13.873a8.111,8.111,0,0,0-6.295-14.949Z" transform="translate(-239.872 -279.443)" fill="#347758"/>
    <path id="Path_38571" data-name="Path 38571" d="M267.723,329.2l-12.551-4.156a2.089,2.089,0,0,0-1.314,3.966l12.551,4.156a8.908,8.908,0,0,0,11.239-5.592,8.81,8.81,0,0,0-5.316-11.089l-18.812-7.007a23.334,23.334,0,0,0-18.881,1.151l-1.508.783a2.09,2.09,0,1,0,1.926,3.709l1.508-.783a19.139,19.139,0,0,1,15.495-.944l18.812,7.007a4.647,4.647,0,0,1,2.816,5.844,4.733,4.733,0,0,1-5.964,2.955Z" transform="translate(-208.282 -251.62)" fill="#347758"/>
    <path id="Path_38572" data-name="Path 38572" d="M247.605,105.043a5.512,5.512,0,0,0,1.433,5.7l6.036,5.827a1.366,1.366,0,0,1,.4,1.219l-1.427,8.229a5.528,5.528,0,0,0,2.2,5.433,5.593,5.593,0,0,0,5.921.447l7.458-3.883a1.47,1.47,0,0,1,1.345,0l7.461,3.885a5.6,5.6,0,0,0,5.923-.447,5.52,5.52,0,0,0,2.2-5.433l-1.425-8.227a1.373,1.373,0,0,1,.4-1.219l6.038-5.827a5.563,5.563,0,0,0-3.1-9.512l-8.34-1.2a1.426,1.426,0,0,1-1.078-.768l-3.728-7.485a5.58,5.58,0,0,0-5.021-3.1h0a5.576,5.576,0,0,0-5.021,3.1l-3.733,7.488a1.423,1.423,0,0,1-1.073.767l-8.342,1.2a5.55,5.55,0,0,0-4.534,3.809Zm13.47-.878a5.6,5.6,0,0,0,4.217-3.038l3.73-7.485a1.4,1.4,0,0,1,1.284-.785h0a1.394,1.394,0,0,1,1.281.783s0,0,0,0l3.728,7.483a5.6,5.6,0,0,0,4.221,3.043l8.34,1.2a1.378,1.378,0,0,1,1.155.961,1.33,1.33,0,0,1-.358,1.407l-6.038,5.827a5.536,5.536,0,0,0-1.616,4.94l1.425,8.228a1.348,1.348,0,0,1-.552,1.347,1.405,1.405,0,0,1-1.527.117l-7.463-3.887a5.63,5.63,0,0,0-5.2,0l-7.461,3.885a1.412,1.412,0,0,1-1.525-.115,1.35,1.35,0,0,1-.553-1.35l1.427-8.227a5.553,5.553,0,0,0-1.619-4.94l-6.036-5.827a1.337,1.337,0,0,1-.358-1.41,1.375,1.375,0,0,1,1.153-.959Z" transform="translate(-220.18 -81.369)" fill="#347758"/>
    <path id="Path_38573" data-name="Path 38573" d="M401.834,71.372l7.509-1.076a5.262,5.262,0,0,0,3.954-2.834l3.357-6.7a1.1,1.1,0,0,1,1.942,0l3.357,6.7a5.257,5.257,0,0,0,3.954,2.832l7.509,1.076a1.03,1.03,0,0,1,.871.714.958.958,0,0,1-.268,1.024l-5.436,5.215a5.183,5.183,0,0,0-1.52,4.622l1.282,7.36a.975.975,0,0,1-.406.982,1.081,1.081,0,0,1-1.168.09L420.055,87.9a5.28,5.28,0,0,0-4.866,0l-6.744,3.491a2.087,2.087,0,0,0,1.644,3.837c.046-.021.261-.122.305-.144l6.715-3.476a1.135,1.135,0,0,1,1.024,0l6.715,3.476a5.26,5.26,0,0,0,5.558-.431,5.145,5.145,0,0,0,2.051-5.067l-1.282-7.359a1,1,0,0,1,.3-.894l5.434-5.213a5.143,5.143,0,0,0,1.35-5.32A5.206,5.206,0,0,0,434,67.233l-7.509-1.076a1.071,1.071,0,0,1-.812-.57l-3.357-6.7a5.273,5.273,0,0,0-9.405,0l-3.357,6.7a1.066,1.066,0,0,1-.812.573l-7.509,1.076a2.089,2.089,0,1,0,.591,4.135Z" transform="translate(-338.255 -56.002)" fill="#fab528"/>
    <path id="Path_38574" data-name="Path 38574" d="M133.035,81.33a1,1,0,0,1,.3.894l-1.282,7.36a5.156,5.156,0,0,0,2.051,5.067,5.26,5.26,0,0,0,5.558.431l6.715-3.476a1.135,1.135,0,0,1,1.024,0l6.715,3.476a2.089,2.089,0,1,0,1.921-3.71L149.322,87.9a5.28,5.28,0,0,0-4.866,0l-6.715,3.476a1.08,1.08,0,0,1-1.168-.09.97.97,0,0,1-.406-.982l1.282-7.362a5.178,5.178,0,0,0-1.523-4.622l-5.434-5.211a.962.962,0,0,1-.265-1.025,1.029,1.029,0,0,1,.869-.714l7.509-1.076a5.262,5.262,0,0,0,3.954-2.834l3.357-6.7a1.1,1.1,0,0,1,1.944,0l3.357,6.7a5.257,5.257,0,0,0,3.954,2.832l7.509,1.076a2.09,2.09,0,1,0,.591-4.138l-7.509-1.076a1.071,1.071,0,0,1-.812-.57l-3.357-6.7a5.275,5.275,0,0,0-9.408,0l-3.357,6.7a1.066,1.066,0,0,1-.812.573l-7.509,1.076a5.2,5.2,0,0,0-4.253,3.569,5.142,5.142,0,0,0,1.35,5.32Z" transform="translate(-126.001 -55.998)" fill="#fab528"/>
  </g>
</svg>
