<svg xmlns="http://www.w3.org/2000/svg" xmlns:xlink="http://www.w3.org/1999/xlink" width="700.596" height="325.431" viewBox="0 0 700.596 325.431">
  <defs>
    <clipPath id="clip-path">
      <path id="Path_38479" data-name="Path 38479" d="M392.563,216.593a21.286,21.286,0,0,0,.553-2.33.63.63,0,0,0-.019-.363.612.612,0,0,0-.326-.258,9.263,9.263,0,0,0-2.289-.7,2.86,2.86,0,0,0-1.445.047,1.222,1.222,0,0,0-.848,1.077,1.407,1.407,0,0,0,.136.541,2.775,2.775,0,0,0,.48.74,5.321,5.321,0,0,0,1.333.975,11.971,11.971,0,0,0,2.446,1.158" fill="none"/>
    </clipPath>
  </defs>
  <g id="Group_19228" data-name="Group 19228" transform="translate(-24.702 -91.853)">
    <g id="Group_19156" data-name="Group 19156">
      <g id="Group_19155" data-name="Group 19155">
        <g id="Group_19137" data-name="Group 19137">
          <rect id="Rectangle_11098" data-name="Rectangle 11098" width="124.085" height="246.638" transform="translate(580.277 160.104)" fill="#d2ab94"/>
          <rect id="Rectangle_11099" data-name="Rectangle 11099" width="7.232" height="27.277" rx="1.681" transform="translate(684.661 275.925)" fill="#f2e2c8"/>
          <path id="Path_38371" data-name="Path 38371" d="M689.3,292.685a1.077,1.077,0,1,0-2.117,0,1.255,1.255,0,0,0,.741,1.2l-.741,2.5H689.2l-.665-2.5A1.242,1.242,0,0,0,689.3,292.685Z" fill="#606060"/>
          <circle id="Ellipse_10463" data-name="Ellipse 10463" cx="6.894" cy="6.894" r="6.894" transform="translate(681.128 271.934)" fill="#606060"/>
          <path id="Path_38372" data-name="Path 38372" d="M691.358,272.8a8.585,8.585,0,0,1,1.172,7.47,7.423,7.423,0,0,1-7.213,4.9,6.893,6.893,0,0,0,6.041-12.372Z" fill="#545453"/>
          <path id="Path_38373" data-name="Path 38373" d="M583.34,406.742V163.679H700.447V406.742" fill="none" stroke="#606060" stroke-width="1"/>
        </g>
        <g id="Group_19154" data-name="Group 19154">
          <g id="Group_19138" data-name="Group 19138">
            <rect id="Rectangle_11100" data-name="Rectangle 11100" width="22.81" height="45.479" rx="2.298" transform="translate(593.995 338.773) rotate(0.255)" fill="#e57930"/>
            <rect id="Rectangle_11101" data-name="Rectangle 11101" width="17.247" height="4.422" transform="matrix(1, 0.004, -0.004, 1, 596.754, 343.838)" fill="#fff" opacity="0.59"/>
            <rect id="Rectangle_11102" data-name="Rectangle 11102" width="17.247" height="4.422" transform="translate(596.723 350.786) rotate(0.255)" fill="#fff" opacity="0.38"/>
            <rect id="Rectangle_11103" data-name="Rectangle 11103" width="17.247" height="4.422" transform="translate(596.694 357.392) rotate(0.255)" fill="#fff" opacity="0.19"/>
          </g>
          <g id="Group_19153" data-name="Group 19153">
            <g id="Group_19139" data-name="Group 19139">
              <path id="Path_38374" data-name="Path 38374" d="M602.031,366.312c-5.794,14.189-8.288,26.59-1.682,29.287,6.974,2.848,13.505-7.9,19.3-22.094s8.655-26.44,1.682-29.287C614.722,341.52,607.824,352.124,602.031,366.312Z" fill="#c37134"/>
              <path id="Path_38375" data-name="Path 38375" d="M607.856,361.487c.617,2.247,2.571,4.957,4.778,5.707a7.3,7.3,0,0,0,6.632-1.073,22.466,22.466,0,0,1-11.228-4.592" fill="#f59052"/>
              <path id="Path_38376" data-name="Path 38376" d="M604.295,370.626c.652,2.237,2.649,4.916,4.868,5.63a7.3,7.3,0,0,0,6.614-1.177,22.468,22.468,0,0,1-11.3-4.414" fill="#f59052"/>
              <path id="Path_38377" data-name="Path 38377" d="M600.972,379.923c.526,1.915,2.191,4.223,4.07,4.862a6.217,6.217,0,0,0,5.65-.914,19.141,19.141,0,0,1-9.565-3.912" fill="#f59052"/>
              <path id="Path_38378" data-name="Path 38378" d="M611.92,353.314c.526,1.915,2.19,4.223,4.07,4.862a6.217,6.217,0,0,0,5.65-.914,19.141,19.141,0,0,1-9.565-3.912" fill="#f59052"/>
            </g>
            <g id="Group_19142" data-name="Group 19142">
              <g id="Group_19140" data-name="Group 19140">
                <path id="Path_38379" data-name="Path 38379" d="M592.323,356.852c4.955-2.22,6.98-8.889,4.034-13.284-5.807,1.448-8.736,9.039-5.295,13.722" fill="#6ea652"/>
                <path id="Path_38380" data-name="Path 38380" d="M582.319,350.592c4.587.4,8.082,5.337,6.756,9.536a1.561,1.561,0,0,1-.629.946,1.7,1.7,0,0,1-1.073.109c-3.85-.543-6.758-4.521-5.955-8.147" fill="#6ea652"/>
                <path id="Path_38381" data-name="Path 38381" d="M598.2,358.793a8.5,8.5,0,0,0-5.333,9.516.9.9,0,0,0,.416.67.994.994,0,0,0,.865-.163,8.555,8.555,0,0,0,4.093-9.292" fill="#6ea652"/>
              </g>
              <g id="Group_19141" data-name="Group 19141">
                <path id="Path_38382" data-name="Path 38382" d="M592.772,406.487c4.06-9.055-.011-19.3-1.654-29.016A58,58,0,0,1,593,350.435" fill="none" stroke="#2d6e56" stroke-width="0.709"/>
                <path id="Path_38383" data-name="Path 38383" d="M590.439,364.391a23.071,23.071,0,0,1-3.623-7.122" fill="none" stroke="#2d6e56" stroke-width="0.709"/>
                <path id="Path_38384" data-name="Path 38384" d="M594.949,364.3a6.391,6.391,0,0,1-4.025,6.2" fill="none" stroke="#2d6e56" stroke-width="0.709"/>
              </g>
            </g>
            <g id="Group_19145" data-name="Group 19145">
              <path id="Path_38385" data-name="Path 38385" d="M577.056,357.909a17.558,17.558,0,0,0-13.211-14.486,41.4,41.4,0,0,0,12.967,15.664" fill="#6ea652"/>
              <path id="Path_38386" data-name="Path 38386" d="M579.284,358.649a22.332,22.332,0,0,0-5.394-22.223,61.7,61.7,0,0,0,3.313,21.459" fill="#6ea652"/>
              <path id="Path_38387" data-name="Path 38387" d="M579.244,357.03a11.356,11.356,0,0,0,3.007-11.985,21.132,21.132,0,0,0-6.033,13.359" fill="#83ba63"/>
              <path id="Path_38388" data-name="Path 38388" d="M578.221,358.947a18.015,18.015,0,0,0-6.591-15.23,20.322,20.322,0,0,0,4.389,14.393" fill="#83ba63"/>
              <g id="Group_19144" data-name="Group 19144">
                <path id="Path_38389" data-name="Path 38389" d="M577.287,357.729c1.005-1.825,3.923-1.63,5.375-.136s1.821,3.705,2.087,5.771c1.2,9.333,1.735,18.738,2.269,28.133-.947.351-1.775-.712-2.222-1.617a170.145,170.145,0,0,1-10.73-27.532,5.106,5.106,0,0,1-.265-2.806,1.8,1.8,0,0,1,2.155-1.344" fill="#ff9b4b"/>
                <g id="Group_19143" data-name="Group 19143">
                  <path id="Path_38390" data-name="Path 38390" d="M577.356,361.16l-2.828.774" fill="none" stroke="#e0853d" stroke-width="1"/>
                  <path id="Path_38391" data-name="Path 38391" d="M584.084,363.669l-2.606.757" fill="none" stroke="#e0853d" stroke-width="1"/>
                  <path id="Path_38392" data-name="Path 38392" d="M578.734,368.7a14.519,14.519,0,0,0-1.974.619" fill="none" stroke="#e0853d" stroke-width="1"/>
                  <path id="Path_38393" data-name="Path 38393" d="M585.178,371.514l-1.962.647" fill="none" stroke="#e0853d" stroke-width="1"/>
                  <path id="Path_38394" data-name="Path 38394" d="M581.184,377.259l-1.375.241" fill="none" stroke="#e0853d" stroke-width="1"/>
                  <path id="Path_38395" data-name="Path 38395" d="M585.871,379.738a5.472,5.472,0,0,1-1.449.352" fill="none" stroke="#e0853d" stroke-width="1"/>
                  <path id="Path_38396" data-name="Path 38396" d="M579.608,356.392a7.728,7.728,0,0,1-4.395,1.421" fill="none" stroke="#e0853d" stroke-width="1"/>
                </g>
              </g>
            </g>
            <g id="Group_19150" data-name="Group 19150">
              <g id="Group_19149" data-name="Group 19149">
                <g id="Group_19146" data-name="Group 19146">
                  <path id="Path_38397" data-name="Path 38397" d="M564.107,363.591a9.533,9.533,0,0,0-3.858-13.167c-3.858,4.156-2.151,12,3.086,14.173" fill="#6ea652"/>
                </g>
                <g id="Group_19147" data-name="Group 19147">
                  <path id="Path_38398" data-name="Path 38398" d="M552.8,363.421a7.707,7.707,0,0,1,10.463,4.56,1.223,1.223,0,0,1-.794,1.745,7.041,7.041,0,0,1-9.086-3.8" fill="#6ea652"/>
                </g>
                <g id="Group_19148" data-name="Group 19148">
                  <path id="Path_38399" data-name="Path 38399" d="M569.823,362.238a8.51,8.51,0,0,0,.816,10.67.893.893,0,0,0,.688.35c.288-.034.473-.316.6-.574a8.659,8.659,0,0,0-1.685-9.855" fill="#6ea652"/>
                </g>
              </g>
            </g>
            <g id="Group_19151" data-name="Group 19151">
              <path id="Path_38400" data-name="Path 38400" d="M574.125,381.464a60.327,60.327,0,0,1-12.9-23.587" fill="none" stroke="#2d6e56" stroke-width="0.709"/>
              <path id="Path_38401" data-name="Path 38401" d="M566.619,370.858a23.362,23.362,0,0,1-6.68-4.126" fill="none" stroke="#2d6e56" stroke-width="0.709"/>
              <path id="Path_38402" data-name="Path 38402" d="M570.168,368.5a6.361,6.361,0,0,1,.091,7.228" fill="none" stroke="#2d6e56" stroke-width="0.709"/>
            </g>
            <g id="Group_19152" data-name="Group 19152">
              <path id="Path_38403" data-name="Path 38403" d="M622.608,368.775l-4.753,38.018-57.4.388-8.409-38.018Z" fill="#f2e2c8"/>
              <path id="Path_38404" data-name="Path 38404" d="M560.123,407.181l-8.079-38.018,6.194-.036c2.352,4.261,3.746,9.138,5.061,13.941,1.542,5.629,3.088,11.38,6.126,16.209a19.161,19.161,0,0,0,8.831,7.777Z" fill="#e2cfb5"/>
            </g>
          </g>
        </g>
      </g>
      <line id="Line_34" data-name="Line 34" x2="180.255" transform="translate(545.042 407.253)" fill="none" stroke="#606060" stroke-width="1"/>
    </g>
    <g id="Group_19163" data-name="Group 19163">
      <g id="Group_19161" data-name="Group 19161">
        <path id="Path_38405" data-name="Path 38405" d="M202,92.385a41.674,41.674,0,0,0-31.429,73.283,1.426,1.426,0,0,0,1.013.818l.048.039-7.422,21.522a1.282,1.282,0,0,0,2.078,1.295l19.025-15.669A41.671,41.671,0,1,0,202,92.385Z" fill="#fff" stroke="#1d1d1b" stroke-width="0.5"/>
        <g id="Group_19157" data-name="Group 19157">
          <rect id="Rectangle_11104" data-name="Rectangle 11104" width="23.656" height="33.727" rx="2.298" transform="translate(197.94 115.25)" fill="#e57930"/>
          <rect id="Rectangle_11105" data-name="Rectangle 11105" width="17.886" height="3.279" transform="translate(200.825 118.997)" fill="#fff" opacity="0.59"/>
          <rect id="Rectangle_11106" data-name="Rectangle 11106" width="17.886" height="3.279" transform="translate(200.825 124.15)" fill="#fff" opacity="0.38"/>
          <rect id="Rectangle_11107" data-name="Rectangle 11107" width="17.886" height="3.279" transform="translate(200.825 129.049)" fill="#fff" opacity="0.19"/>
        </g>
        <g id="Group_19158" data-name="Group 19158">
          <rect id="Rectangle_11108" data-name="Rectangle 11108" width="32.357" height="22.957" rx="0.681" transform="translate(187.702 132.575)" fill="#6ea652"/>
          <rect id="Rectangle_11109" data-name="Rectangle 11109" width="32.464" height="0.795" transform="translate(187.649 137.862)" fill="#5d8e3d"/>
          <rect id="Rectangle_11110" data-name="Rectangle 11110" width="38.016" height="4.995" rx="0.404" transform="translate(184.872 132.575)" fill="#6ea652"/>
          <rect id="Rectangle_11111" data-name="Rectangle 11111" width="27.551" height="9.026" transform="translate(190.105 140.525)" fill="#5d8e3d"/>
        </g>
        <path id="Path_38406" data-name="Path 38406" d="M190.187,154.693a9.649,9.649,0,0,1,2.952-17.12,9.207,9.207,0,0,1,9.918,14.2,9.053,9.053,0,0,1-6.846,3.811" fill="#d34c4c"/>
        <g id="Group_19159" data-name="Group 19159">
          <path id="Path_38407" data-name="Path 38407" d="M186.9,133.892c4.252,10.691,6.044,20,1.082,21.944-5.238,2.048-10.063-6.079-14.314-16.77s-6.321-19.9-1.083-21.944C177.55,115.182,182.651,123.2,186.9,133.892Z" fill="#c37134"/>
          <path id="Path_38408" data-name="Path 38408" d="M182.57,130.21a6.568,6.568,0,0,1-3.611,4.215,5.479,5.479,0,0,1-4.958-.882,16.684,16.684,0,0,0,8.433-3.3" fill="#f59052"/>
          <path id="Path_38409" data-name="Path 38409" d="M179.577,124.044a5.6,5.6,0,0,1-3.076,3.591,4.675,4.675,0,0,1-4.225-.752,14.212,14.212,0,0,0,7.185-2.814" fill="#f59052"/>
        </g>
        <path id="Path_38410" data-name="Path 38410" d="M180.311,155.21a7.245,7.245,0,0,1-4.139-6.08,9.488,9.488,0,0,1,2.652-7.031,7.779,7.779,0,0,1,2.751-1.969c2.833-1.129,6.2.141,8.27,2.376A9,9,0,0,1,192,151.3c-1.032,3-4.328,5.186-7.431,4.533-.941-.2-1.993-.61-2.8-.083" fill="#efb93f"/>
        <g id="Group_19160" data-name="Group 19160">
          <rect id="Rectangle_11112" data-name="Rectangle 11112" width="41.872" height="1.787" transform="translate(178.149 154.487)" fill="#38303b"/>
          <rect id="Rectangle_11113" data-name="Rectangle 11113" width="31.172" height="1.847" transform="translate(229.979 126.913) rotate(109.654)" fill="#38303b"/>
          <rect id="Rectangle_11114" data-name="Rectangle 11114" width="31.172" height="1.847" transform="translate(169.452 126.291) rotate(70.346)" fill="#38303b"/>
          <path id="Path_38411" data-name="Path 38411" d="M231,127.679H166.915a2.043,2.043,0,0,1-2.043-2.043h0a2.043,2.043,0,0,1,2.043-2.043H231a2.043,2.043,0,0,1,2.042,2.043h0A2.043,2.043,0,0,1,231,127.679Z" fill="#38303b"/>
          <path id="Rectangle_11115" data-name="Rectangle 11115" d="M1.276,0h.08A1.277,1.277,0,0,1,2.633,1.277V26.758a1.277,1.277,0,0,1-1.277,1.277h-.08A1.276,1.276,0,0,1,0,26.758V1.276A1.276,1.276,0,0,1,1.276,0Z" transform="translate(196.506 105.188) rotate(47.246)" fill="#38303b"/>
          <rect id="Rectangle_11116" data-name="Rectangle 11116" width="2.633" height="28.034" rx="1.277" transform="translate(222.46 124.651) rotate(135)" fill="#38303b"/>
          <line id="Line_35" data-name="Line 35" x2="5.651" y2="29.59" transform="translate(184.221 125.941)" fill="none" stroke="#38303b" stroke-width="1"/>
          <line id="Line_36" data-name="Line 36" x1="5.651" y2="29.59" transform="translate(210.008 125.941)" fill="none" stroke="#38303b" stroke-width="1"/>
          <line id="Line_37" data-name="Line 37" x2="0.851" y2="28.766" transform="translate(200.191 125.891)" fill="none" stroke="#38303b" stroke-width="1"/>
          <line id="Line_38" data-name="Line 38" x1="49.702" y1="0.17" transform="translate(174.149 141.21)" fill="none" stroke="#38303b" stroke-width="1"/>
        </g>
      </g>
      <g id="Group_19162" data-name="Group 19162">
        <path id="Path_38412" data-name="Path 38412" d="M245.808,140.444c35.745,1.277,43.915,31.4,79.149,66.639,14.43,14.429,36.4,29.248,59.234,28.6,35.745-1.022,49.471-14.753,68.137-27.918,12.544-8.848,21.736-21.614,17.14-33.87-.91-2.426-4.085-10.212-12.255-10.723-6.052-.378-13.4,3.638-15.83,9.191-2.84,6.479-2.51,13.96.511,21.447,3.843,9.528,17.855,23.557,26.808,28.6,8.6,4.84,23.091,12.359,32.936,13.021,26.553,1.788,37.277-14.042,43.915-23.744,13.24-19.351,24.255-26.043,37.277-28.086,10.89-1.708,24,1.022,30.127,9.192" fill="none" stroke="#1d1d1b" stroke-width="1" stroke-dasharray="5"/>
        <path id="Path_38413" data-name="Path 38413" d="M619.11,126.782c-10.519-.07-19.108,9.047-19.182,20.363S618.7,188.613,618.7,188.613s19.245-29.9,19.32-41.218S629.63,126.851,619.11,126.782Zm-.2,30a10.429,10.429,0,1,1,10.311-10.36A10.336,10.336,0,0,1,618.913,156.783Z" fill="#f2e2c8"/>
        <path id="Path_38414" data-name="Path 38414" d="M622.4,196.359a3.319,3.319,0,1,1-3.319-3.319A3.319,3.319,0,0,1,622.4,196.359Z" fill="#f2e2c8"/>
      </g>
    </g>
    <g id="Group_19187" data-name="Group 19187">
      <line id="Line_39" data-name="Line 39" x2="213.447" transform="translate(288.042 407.253)" fill="none" stroke="#606060" stroke-width="1"/>
      <g id="Group_19186" data-name="Group 19186">
        <g id="Group_19165" data-name="Group 19165">
          <path id="Path_38415" data-name="Path 38415" d="M405.4,365.55c-.6-2.733,1.1-5.472,1.006-8.247a8.065,8.065,0,0,1-4.544.027.617.617,0,0,0-.489-.009.357.357,0,0,0-.131.244c-.444,2.1-.65,4.295-1.862,6.194-.208.325-.42.771-.075,1.009" fill="#e89c82"/>
          <g id="Group_19164" data-name="Group 19164">
            <path id="Path_38416" data-name="Path 38416" d="M424.478,371.819c-4.6.262-8.359.47-12.953.732a8.752,8.752,0,0,1-4.146-.433c-.7-.319-1.393-.842-2.151-.682-.586.123-.988.624-1.523.882a3.931,3.931,0,0,1-1.542.273l-4.82.2a2.314,2.314,0,0,1-1.522-.289,1.888,1.888,0,0,1-.506-1.615,24.154,24.154,0,0,1,1.18-6.8,1.7,1.7,0,0,1,.942-1.231,2.048,2.048,0,0,1,1.462.321c1.842.916,4.248,1.539,5.9.347a6.737,6.737,0,0,1,1.28-.933,3.4,3.4,0,0,1,1.774-.061,61.9,61.9,0,0,1,14.826,4.152,6.35,6.35,0,0,1,2.826,1.884,2.1,2.1,0,0,1-.338,2.95" fill="#00021c"/>
          </g>
        </g>
        <g id="Group_19173" data-name="Group 19173">
          <g id="Group_19168" data-name="Group 19168">
            <g id="Group_19166" data-name="Group 19166">
              <path id="Path_38417" data-name="Path 38417" d="M327.077,241.4c-3.173-4.336-1.991-10.743,2.355-12.764,4.216,4.154,3.39,11.768-1.493,13.765" fill="#6ea652"/>
              <path id="Path_38418" data-name="Path 38418" d="M338.107,241.51c-3.995-2.036-9.032.135-9.733,4.2a1.543,1.543,0,0,0,.117,1.084,1.811,1.811,0,0,0,.847.64c3.442,1.544,7.576-.16,8.468-3.491" fill="#6ea652"/>
              <path id="Path_38419" data-name="Path 38419" d="M321.347,239.938c2.575,3.118,2.732,7.781.349,10.4a.753.753,0,0,1-.635.325c-.284-.041-.495-.32-.65-.576-1.91-3.151-1.66-7.23.587-9.582" fill="#6ea652"/>
            </g>
            <g id="Group_19167" data-name="Group 19167">
              <path id="Path_38420" data-name="Path 38420" d="M305.344,281.1c.514-9.375,8.312-15.519,13.865-22.494a50.224,50.224,0,0,0,10.069-22.719" fill="none" stroke="#2d6e56" stroke-width="0.709"/>
              <path id="Path_38421" data-name="Path 38421" d="M325.4,248.434a19.038,19.038,0,0,0,6.084-3.865" fill="none" stroke="#2d6e56" stroke-width="0.709"/>
              <path id="Path_38422" data-name="Path 38422" d="M321.683,246.043a6.285,6.285,0,0,0,.687,7.056" fill="none" stroke="#2d6e56" stroke-width="0.709"/>
            </g>
          </g>
          <g id="Group_19169" data-name="Group 19169">
            <ellipse id="Ellipse_10464" data-name="Ellipse 10464" cx="17.883" cy="6.131" rx="17.883" ry="6.131" transform="translate(312.41 261.229) rotate(-83.538)" fill="#c37134"/>
            <path id="Path_38423" data-name="Path 38423" d="M317.192,239.447a5.719,5.719,0,0,0,3.962,2.7,4.7,4.7,0,0,0,3.925-1.826,14.483,14.483,0,0,1-7.767-.884" fill="#f59052"/>
            <path id="Path_38424" data-name="Path 38424" d="M316.582,245.739a5.721,5.721,0,0,0,4,2.641,4.7,4.7,0,0,0,3.9-1.887,14.479,14.479,0,0,1-7.78-.762" fill="#f59052"/>
            <path id="Path_38425" data-name="Path 38425" d="M316.147,252.087a4.877,4.877,0,0,0,3.375,2.3,4.007,4.007,0,0,0,3.344-1.555,12.344,12.344,0,0,1-6.617-.754" fill="#f59052"/>
            <path id="Path_38426" data-name="Path 38426" d="M318.283,233.667a4.871,4.871,0,0,0,3.375,2.3A4.006,4.006,0,0,0,325,234.416a12.32,12.32,0,0,1-6.616-.754" fill="#f59052"/>
          </g>
          <path id="Path_38427" data-name="Path 38427" d="M309.527,231.007l-.021-3.742,4.731-.027.02,3.536a4.288,4.288,0,0,0,1.451,3.19l1.473,1.3a6.424,6.424,0,0,1,2.176,4.784l.167,29.381a1.488,1.488,0,0,1-1.481,1.5l-11.846.067a1.489,1.489,0,0,1-1.5-1.48l-.166-29.252a6.429,6.429,0,0,1,2.282-4.95l1.191-1A4.289,4.289,0,0,0,309.527,231.007Z" fill="#f2e2c8"/>
          <g id="Group_19172" data-name="Group 19172">
            <path id="Path_38428" data-name="Path 38428" d="M300.746,247.373a17.559,17.559,0,0,0-13.212-14.486A41.4,41.4,0,0,0,300.5,248.551" fill="#6ea652"/>
            <path id="Path_38429" data-name="Path 38429" d="M302.974,248.113a22.332,22.332,0,0,0-5.394-22.223,61.7,61.7,0,0,0,3.313,21.459" fill="#6ea652"/>
            <path id="Path_38430" data-name="Path 38430" d="M302.934,246.494a11.353,11.353,0,0,0,3.006-11.984,21.132,21.132,0,0,0-6.033,13.358" fill="#83ba63"/>
            <path id="Path_38431" data-name="Path 38431" d="M301.911,248.411a18.015,18.015,0,0,0-6.591-15.23,20.322,20.322,0,0,0,4.389,14.393" fill="#83ba63"/>
            <g id="Group_19171" data-name="Group 19171">
              <path id="Path_38432" data-name="Path 38432" d="M300.976,247.193c1.006-1.825,3.923-1.63,5.376-.136s1.82,3.7,2.086,5.771c1.2,9.334,1.736,18.738,2.269,28.133-.946.351-1.775-.712-2.222-1.617a170.136,170.136,0,0,1-10.729-27.532,5.107,5.107,0,0,1-.266-2.806,1.8,1.8,0,0,1,2.156-1.344" fill="#ff9b4b"/>
              <g id="Group_19170" data-name="Group 19170">
                <path id="Path_38433" data-name="Path 38433" d="M301.046,250.624l-2.828.774" fill="none" stroke="#e0853d" stroke-width="1"/>
                <path id="Path_38434" data-name="Path 38434" d="M307.774,253.133l-2.606.757" fill="none" stroke="#e0853d" stroke-width="1"/>
                <path id="Path_38435" data-name="Path 38435" d="M302.424,258.164a14.478,14.478,0,0,0-1.974.619" fill="none" stroke="#e0853d" stroke-width="1"/>
                <path id="Path_38436" data-name="Path 38436" d="M308.868,260.978l-1.963.647" fill="none" stroke="#e0853d" stroke-width="1"/>
                <path id="Path_38437" data-name="Path 38437" d="M304.874,266.723l-1.375.241" fill="none" stroke="#e0853d" stroke-width="1"/>
                <path id="Path_38438" data-name="Path 38438" d="M309.561,269.2a5.443,5.443,0,0,1-1.449.352" fill="none" stroke="#e0853d" stroke-width="1"/>
                <path id="Path_38439" data-name="Path 38439" d="M303.3,245.856a7.733,7.733,0,0,1-4.395,1.421" fill="none" stroke="#e0853d" stroke-width="1"/>
              </g>
            </g>
          </g>
          <rect id="Rectangle_11117" data-name="Rectangle 11117" width="47.097" height="34.919" transform="translate(297.144 278.572)" fill="#edc2af"/>
          <rect id="Rectangle_11118" data-name="Rectangle 11118" width="48.981" height="33.242" transform="translate(288.666 245.671)" fill="#d2ab94"/>
          <path id="Path_38440" data-name="Path 38440" d="M304.967,245.3c7.143,23.888,15.518,48.8,22.843,72.216" fill="none" stroke="#00021c" stroke-width="1"/>
          <path id="Path_38441" data-name="Path 38441" d="M313.157,317.73c5.5-24.49,10.407-47.937,15.908-72.426" fill="none" stroke="#00021c" stroke-width="1"/>
        </g>
        <g id="Group_19175" data-name="Group 19175">
          <rect id="Rectangle_11119" data-name="Rectangle 11119" width="56.988" height="4.003" transform="translate(293.926 313.491)" fill="#2a232d"/>
          <rect id="Rectangle_11120" data-name="Rectangle 11120" width="25.754" height="2.677" transform="translate(309.442 314.328) rotate(45)" fill="#2a232d"/>
          <rect id="Rectangle_11121" data-name="Rectangle 11121" width="85.717" height="10.361" transform="translate(358.371 371.277)" fill="#00021c"/>
          <path id="Path_38442" data-name="Path 38442" d="M313.576,370.3c-2.094-24.282,11.349-38.044,19.467-45.423,6.907-6.28,17.169-10.6,21.769-11.722,15.385-3.768,22.533-2.282,36.422-.419-7.326,8.373-10.767,11.071-14.862,21.142-3.872,9.524-5.034,14.864-2.721,23.653,2.093,7.954,9,10.4,13.606,10.675,21.141,1.256,28.274-1.284,40.608-12.768,11.606-10.807,16.628-28.363,16.088-44.212-.5-14.8-5.3-29.112-11.288-42.7a3.721,3.721,0,0,1,2.137-5c.424-.153,1.056-.374,2.092-.759,1.815-.675,3.873-1.25,5.639-.454a7.578,7.578,0,0,1,2.915,2.9c10.99,16.325,20.946,47.359,19.467,66.983s-5.952,25.627-11.931,44.376c-36.213,2.565-81.9,1.622-135.588,1.151" fill="#38303b"/>
          <path id="Path_38443" data-name="Path 38443" d="M314.808,356.032l40.647,22.061q7.328.069,14.413.12.261-3.027.52-6.053c.507-5.912,1.012-11.894.082-17.755s-3.314-12.2-7.913-15.952a32.65,32.65,0,0,0-16.118-6.28,47.568,47.568,0,0,0-22.959,3.793A48.789,48.789,0,0,0,314.808,356.032Z" fill="#2a232d"/>
          <path id="Path_38444" data-name="Path 38444" d="M458.868,319.511c-.576,12.8-3.579,25.665-10.126,36.678l9.649,4.95c3.214-8.806,5.537-15.839,6.524-28.94.955-12.67-2.859-30.092-8.638-45.244A150.362,150.362,0,0,1,458.868,319.511Z" fill="#2a232d"/>
          <path id="Path_38445" data-name="Path 38445" d="M350.717,318.326a128.811,128.811,0,0,0,17.529,3.4c2.78.341,5.664.621,8.094,2.014a7.754,7.754,0,0,1,3.2,3.5c3-5.241,6.289-8.332,11.7-14.51-13.889-1.863-21.037-3.349-36.422.419a49.851,49.851,0,0,0-8.7,3.287A14.788,14.788,0,0,0,350.717,318.326Z" fill="#2a232d"/>
          <path id="Path_38446" data-name="Path 38446" d="M463.871,274.653a7.436,7.436,0,1,0-.678-14.633" fill="none" stroke="#2a232d" stroke-width="1"/>
          <path id="Path_38447" data-name="Path 38447" d="M450.414,281.277a6.2,6.2,0,0,1,8.666-5.1c1.069.469,1.989,1.231,3.058,1.7a5.074,5.074,0,0,0,4.693.191,1.592,1.592,0,0,0,.649-.5,3.744,3.744,0,0,0,.471-1.413c0-5.119.046-10.156-.46-15.25-.108-1.1.166-2.228-.482-3.118a4.3,4.3,0,0,0-1.9-1.385,7.5,7.5,0,0,0-6.422.588c-2.757,1.818-3.806,5.467-6.459,7.433-2.773,2.054-5,2.784-8.923-1.612-1.2-1.34-4.684,1.838-6.357,2.494" fill="#38303b"/>
          <path id="Path_38448" data-name="Path 38448" d="M467.924,269.48a11.083,11.083,0,0,1-7.282,2.092,22.782,22.782,0,0,0-4.2-.325,11.2,11.2,0,0,0-4.791,2.2,1.034,1.034,0,0,0-.395,1.663l1.131,2.205a5.987,5.987,0,0,1,1.054-.8,6.309,6.309,0,0,1,5.636-.335c1.069.469,1.989,1.231,3.058,1.7a5.074,5.074,0,0,0,4.693.191,1.592,1.592,0,0,0,.649-.5,3.744,3.744,0,0,0,.471-1.413C467.95,273.917,467.956,271.7,467.924,269.48Z" fill="#2a232d"/>
          <path id="Path_38449" data-name="Path 38449" d="M316.218,370.191H305.386a4.474,4.474,0,0,1-4.474-4.474h0a4.475,4.475,0,0,1,4.474-4.475h10.832a4.476,4.476,0,0,1,4.475,4.475h0A4.475,4.475,0,0,1,316.218,370.191Z" fill="#00021c"/>
          <circle id="Ellipse_10465" data-name="Ellipse 10465" cx="22.842" cy="22.842" r="22.842" transform="matrix(0.744, -0.668, 0.668, 0.744, 303.898, 383.303)" fill="#38303b"/>
          <path id="Path_38450" data-name="Path 38450" d="M350.076,385.027a13.92,13.92,0,1,1-13.92-13.92A13.92,13.92,0,0,1,350.076,385.027Z" fill="#fff"/>
          <circle id="Ellipse_10466" data-name="Ellipse 10466" cx="11.176" cy="11.176" r="11.176" transform="translate(323.384 394.275) rotate(-80.815)" fill="#2a232d"/>
          <path id="Path_38451" data-name="Path 38451" d="M368.627,382.4c-1.674,8.373-61.75,7.068-61.75-2.18,0-13.709,6.8-41.764,37.992-41.764C374.384,338.453,371.42,368.434,368.627,382.4Z" fill="#f2e2c8"/>
          <circle id="Ellipse_10467" data-name="Ellipse 10467" cx="22.842" cy="22.842" r="22.842" transform="translate(429.948 402.073) rotate(-76.849)" fill="#38303b"/>
          <circle id="Ellipse_10468" data-name="Ellipse 10468" cx="14.339" cy="14.339" r="14.339" transform="matrix(0.228, -0.974, 0.974, 0.228, 440.154, 395.712)" fill="#fff"/>
          <path id="Path_38452" data-name="Path 38452" d="M468.9,385.027a11.512,11.512,0,1,1-11.512-11.512A11.512,11.512,0,0,1,468.9,385.027Z" fill="#2a232d"/>
          <path id="Path_38453" data-name="Path 38453" d="M486.609,380.217c0,8.274-59.088,9.248-59.088,0,0-13.709,10.422-28.621,26.719-29.428C475.381,349.743,486.609,366.508,486.609,380.217Z" fill="#f2e2c8"/>
          <g id="Group_19174" data-name="Group 19174">
            <path id="Path_38454" data-name="Path 38454" d="M311.8,378.025a53.858,53.858,0,0,1,6.321-19.371,29.2,29.2,0,0,1,14.35-12.823" fill="none" stroke="#2a232d" stroke-width="1"/>
            <path id="Path_38455" data-name="Path 38455" d="M318.9,372.064c1.109-6.807,4.459-13.046,9.64-16.656" fill="none" stroke="#2a232d" stroke-width="1"/>
            <path id="Path_38456" data-name="Path 38456" d="M481.033,379.166c0-6.8-4.448-15.124-10.127-18.56" fill="none" stroke="#2a232d" stroke-width="1"/>
            <path id="Path_38457" data-name="Path 38457" d="M475.874,380.119c.074-4.507-2.439-9.483-4.7-10.959" fill="none" stroke="#2a232d" stroke-width="1"/>
          </g>
          <path id="Path_38458" data-name="Path 38458" d="M440.924,273.606a3.28,3.28,0,0,0-4.272.03c-4.58,3.953-7.961,7.5-13.024,11.609a2.517,2.517,0,0,0-.734,1,3.088,3.088,0,0,0,.522,2.639c.756,1.271,2.113,2.538,3.513,2.086a3.773,3.773,0,0,0,1.243-.811q6.566-5.662,12.889-11.6a3.329,3.329,0,0,0-.137-4.954Z" fill="#00021c"/>
          <path id="Path_38459" data-name="Path 38459" d="M436.972,278.893a7.1,7.1,0,0,0-9.172-2.566c-.848.439-1.606,1.041-2.47,1.445a12.247,12.247,0,0,1-4.347.855,20.678,20.678,0,0,1-2.816,0l-.147,6.129c2.148.106,4.3.212,5.868.213.378,0,.846-.512,1.152-.733.353-.255,1.13-1.186,1.465-1.465,1.256-1.047,1.623-1.866,3.408-1.23a3.887,3.887,0,0,1,2.333,4.6,1.72,1.72,0,0,0-.135.978c.2.622,1.074.649,1.692.443C437.134,286.449,438.684,281.958,436.972,278.893Z" fill="#83ba63"/>
        </g>
        <g id="Group_19185" data-name="Group 19185">
          <path id="Path_38460" data-name="Path 38460" d="M392.726,365.1a33.134,33.134,0,0,1,1.634-5.584.746.746,0,0,1,.217-.344,1.137,1.137,0,0,1,.576-.161q2.83-.273,5.681-.4a48.407,48.407,0,0,0-.969,8.517" fill="#f7b094"/>
          <g id="Group_19183" data-name="Group 19183">
            <path id="Path_38461" data-name="Path 38461" d="M360.72,308.252c-4.054-4.01-5.059-15.85-.644-19.459,5.885-4.81,15.7-1.956,21.028-.67,8.514,2.053,19.885,4.068,29.319,6.725,6.311,1.777,10.731,3.809,13.627,7.305,3.847,4.645,1.584,10.713-1.4,19.049-5.294,14.78-9.476,24.518-15.577,38.511a1.743,1.743,0,0,1-1.568,1.041,37.179,37.179,0,0,1-5.429-.159,2.49,2.49,0,0,1-1.885-.811,2.655,2.655,0,0,1-.035-2c3.847-18.309,2.8-28.543,10.1-42.485a114.141,114.141,0,0,1-39.293-4.97" fill="#347758"/>
            <g id="Group_19177" data-name="Group 19177">
              <g id="Group_19176" data-name="Group 19176">
                <path id="Path_38462" data-name="Path 38462" d="M436.654,279.042c.1.307-.256-.464-.573-.4a93.232,93.232,0,0,1-16.641,1.727,77.85,77.85,0,0,1-16.827-1.755c-3.592-.78-8.754-2.688-11.382-6.912-4.593-7.381-8.381-13.068-11.967-20.987-2.441-5.393-4.961-10.039-3.537-15.974.334-1.391,2.02-3.564,4.237-5.143,3.529-2.513,7.779-.946,10.433,1.161,3.558,2.826,4.755,7.538,5.882,10.735,2.376,6.743,3.483,12.442,5.86,19.185,1.056,3,2.3,6.233,5.043,7.842a13.663,13.663,0,0,0,5.231,1.41c7.287.951,14.322,1.143,21.6,2.071a.541.541,0,0,1,.446.368Z" fill="#ea8f18"/>
                <path id="Path_38463" data-name="Path 38463" d="M402.259,267.356c1.136-.043,2.176-.009,3.312-.053" fill="#ea8f18"/>
                <path id="Path_38464" data-name="Path 38464" d="M405.069,267.043c-2.078-2.062-2.522-5.122-3.383-7.92" fill="#ea8f18"/>
              </g>
              <path id="Path_38465" data-name="Path 38465" d="M355.074,297.321c.938-16.264,4.214-21.4,3.611-37.678-.314-8.478-2.1-16.4.627-23.549,2.142-5.614,8.3-10.954,14.486-10.9,3.517.028,9.9.968,14.361,4.343,7.391,5.6,6.787,14.961,7.262,24.144.819,15.873-1.884,31.4,0,48.039" fill="#f2e2c8"/>
            </g>
            <path id="Path_38466" data-name="Path 38466" d="M356.8,308.938c-3.986-4.078-4.79-15.933-.314-19.467,5.965-4.71,15.728-1.69,21.037-.314,8.477,2.2,19.812,4.4,29.2,7.222,6.28,1.884,10.665,3.991,13.5,7.535,3.768,4.71,1.4,10.738-1.725,19.023-5.448,14.429-10.41,24.115-16.624,37.623a2.747,2.747,0,0,1-2.613,1.593,33.581,33.581,0,0,1-4-.212,2.489,2.489,0,0,1-1.871-.843,2.652,2.652,0,0,1,0-2c4.156-18.241,3.287-28.492,10.823-42.307a114.168,114.168,0,0,1-39.2-5.636" fill="#4c9374"/>
            <path id="Path_38467" data-name="Path 38467" d="M383.092,217.582c-5.457.451-12.064-1.6-13.423-5.446-1.749-4.948-2.953-7.04-3.191-10.649-.207-3.122-.618-5.1,1.134-8.115a15.635,15.635,0,0,1,9.759-6.914,27.294,27.294,0,0,1,9.474-.367,2.272,2.272,0,0,1,1.344,3.889c-22.465,17.864.031,3.547,2.241,3.576,2.171.027-2.022,1.278-1.3,2.5.826,1.4.891,2.284-.357,3.805-.708.865,2.007,2.745.323,5.4-1.522,2.4.55,10.949-3.053,11.958" fill="#38303b"/>
            <path id="Path_38468" data-name="Path 38468" d="M375.286,226.91c-.97-.781-1.686-.94-1.544-2.3.356-3.425.865-5.436,1.115-7.75.1-.951.205-1.9.345-2.851a1.11,1.11,0,0,1,.213-.6.733.733,0,0,1,.434-.2c1.526-.257,2.909.708,4.362,1.146,1.777.537,3.714.286,5.51.75a.731.731,0,0,1,.547.372,1.083,1.083,0,0,1,.049.443c-.073,2.751-.366,5.565-.49,9.024a9.027,9.027,0,0,1-.3,2.788l-.97.785c-.914.824-4.328.589-6.055-.2A10.964,10.964,0,0,1,375.286,226.91Z" fill="#f7b094"/>
            <path id="Path_38469" data-name="Path 38469" d="M375.415,213.409a.733.733,0,0,1,.434-.2c1.526-.257,2.909.708,4.362,1.147,1.777.536,3.714.285,5.51.749a.734.734,0,0,1,.548.372,1.1,1.1,0,0,1,.048.443q-.061,2.307-.122,4.613a10.354,10.354,0,0,1-5.3,1.453,7.334,7.334,0,0,1-6.189-3.775l.147-1.355c.1-.951.205-1.9.345-2.851A1.11,1.11,0,0,1,375.415,213.409Z" fill="#e89c82"/>
            <path id="Path_38470" data-name="Path 38470" d="M371.8,208.094c-1.87-.727-3.736-2.177-3.649-3.684s2.064-2.785,4.073-2.388" fill="#f7b094"/>
            <path id="Path_38471" data-name="Path 38471" d="M371.907,209.31c1.081,7.547,6.248,8.966,11.554,11.215a10.523,10.523,0,0,0,3.612.658c2.591-.045,4.073-2.334,4.854-4.317a45.515,45.515,0,0,0,2.768-10.62c.331-2.482,1-6.4.066-8.786s-3.643-3.245-6.609-4c-3.7-.946-7.711.53-10.555,2.618-4.2,3.08-6.765,7.777-5.821,12.312" fill="#f7b094"/>
            <path id="Path_38472" data-name="Path 38472" d="M387.23,200.39c-.093.053-.011.167.11.192a.8.8,0,0,0,.359-.035,7.427,7.427,0,0,1,4.386.3,2.21,2.21,0,0,0,.639.2c.232.021.5-.064.521-.217a.271.271,0,0,0-.071-.192,2.128,2.128,0,0,0-.911-.594,6.557,6.557,0,0,0-3.947-.23,2.1,2.1,0,0,0-1.133.617" fill="#38303b"/>
            <path id="Path_38473" data-name="Path 38473" d="M380.935,207.6a3.611,3.611,0,0,0,.844,4.888,3.236,3.236,0,0,0,4.737-.55,3.74,3.74,0,0,0-.8-5A3.3,3.3,0,0,0,380.935,207.6Z" fill="#ed825d" opacity="0.47"/>
            <path id="Path_38474" data-name="Path 38474" d="M389.235,204.263c-.21.865.046,1.661.571,1.777s1.121-.49,1.33-1.355-.046-1.662-.571-1.778S389.444,203.4,389.235,204.263Z" fill="#38303b"/>
            <path id="Path_38475" data-name="Path 38475" d="M388.094,190.893c6.8-3.688-3.046-4.918-8.088-4.8-1.2.029-3.279,2.712-4.479,2.774-3.236.166-5.9,2.89-6.669,5.877s-.461,3.382.783,6.2l2.523.713c.016-.023-.059,1.052.008,2.156a4.835,4.835,0,0,0,.211,1.749.864.864,0,0,0,1.574-.157c1.309-4.009,3.173-7.482,6.885-9.063a16.519,16.519,0,0,1,3.078-.607c2.351-.229,1.738-.352,4.1-.473s2.046-.454,3.776-2C393.691,191.569,385.931,192.067,388.094,190.893Z" fill="#38303b"/>
            <path id="Path_38476" data-name="Path 38476" d="M392.24,203.507a3.771,3.771,0,0,0-1.878-.751,3.33,3.33,0,0,0-1.933.2" fill="none" stroke="#38303b" stroke-width="0.709"/>
            <g id="Group_19181" data-name="Group 19181">
              <g id="Group_19180" data-name="Group 19180" clip-path="url(#clip-path)">
                <g id="Group_19178" data-name="Group 19178">
                  <path id="Path_38477" data-name="Path 38477" d="M397.064,214.719a5.257,5.257,0,0,1-5.455,1.029,5.633,5.633,0,0,1-2.343-2.044,10.761,10.761,0,0,0,7.847.922" fill="#e66e60"/>
                </g>
                <g id="Group_19179" data-name="Group 19179">
                  <path id="Path_38478" data-name="Path 38478" d="M397.064,214.719a10.672,10.672,0,0,1-6.527-.232,2.776,2.776,0,0,1-1.46-.859,19.481,19.481,0,0,0,8.247.95Z" fill="#fff"/>
                </g>
              </g>
            </g>
            <path id="Path_38480" data-name="Path 38480" d="M374.81,209.579l.563,4.369a7.569,7.569,0,0,0,.529,2.252c.744,1.6,2.465,2.451,4.062,3.19,3.258,1.505,7.045,3.022,10.3,1.512a5.452,5.452,0,0,0,2.867-3.164,23.294,23.294,0,0,0,1.188-4.1c.333-1.266,2.816-2.456,2.588-3.746a8.143,8.143,0,0,0-.959-1.765c-.534-.8-1.075-2.254-1.336-1.636-.3.7-2.572,2.265-3.258,2.593-1.94.926-4.188.848-6.335.751-3.2-.145-6.764-.447-8.935-2.81-1.9-2.064-1.582-3.948-3.913-5.191.613.645,1.718,4.112,2.635,7.384" fill="#f2e2c8"/>
            <path id="Path_38481" data-name="Path 38481" d="M410.043,198.5l-.012-.708a.9.9,0,0,0-.887-.885L395.59,196.7a14.9,14.9,0,0,0-11.53-12.773,15.071,15.071,0,0,0-17.784,11.741,15.7,15.7,0,0,0-.355,3.051l29.788.527c0-.015,0-.03,0-.044l13.418.217A.9.9,0,0,0,410.043,198.5Z" fill="#4c9374"/>
            <path id="Path_38482" data-name="Path 38482" d="M409.144,196.91,395.59,196.7c-.007-.053-.019-.105-.026-.159l-29.615,1.516c-.014.221-.024.442-.028.662l29.788.527c0-.015,0-.03,0-.044l13.418.217a.9.9,0,0,0,.916-.917l-.012-.708A.9.9,0,0,0,409.144,196.91Z" fill="#347758"/>
            <path id="Path_38483" data-name="Path 38483" d="M373.495,225.291a14.892,14.892,0,0,0,8.754,3.436c1.357.071,3.831.439,3.752-1.189" fill="none" stroke="#ea8f18" stroke-width="1"/>
            <path id="Path_38484" data-name="Path 38484" d="M346.776,316.706c-6.241-.706-10.818-5.7-11.612-9.215a4.2,4.2,0,0,1,1.071-4.174c1.514-1.375,4.216-1.586,6.453-1.09a36.612,36.612,0,0,1,6.226,2.422c9.728,4.085,21.43,3.445,32.484,3.438a19.358,19.358,0,0,1,5.688.582,9.4,9.4,0,0,1,5.748,5.135,19.7,19.7,0,0,1,1.321,6.923,2.6,2.6,0,0,1-1.084,2.515,2.984,2.984,0,0,1-3.326-.486,18.7,18.7,0,0,1-2.115-2.586c-2.89-3.338-8.915-3.732-14.087-3.644C365.253,316.666,346.776,316.706,346.776,316.706Z" fill="#00021c"/>
            <path id="Path_38485" data-name="Path 38485" d="M412.271,284.552c3.105,0,8.512.417,11.617.419.378,0,.846-.512,1.152-.733.353-.255,1.13-1.186,1.465-1.465,1.256-1.047,1.623-1.866,3.408-1.23a3.888,3.888,0,0,1,2.333,4.6,1.715,1.715,0,0,0-.135.977c.2.622,1.074.649,1.692.443,3.331-1.112,4.881-5.6,3.169-8.668a7.1,7.1,0,0,0-9.172-2.566c-.848.439-1.606,1.041-2.47,1.445a12.247,12.247,0,0,1-4.347.855,29.378,29.378,0,0,1-6.723-.459,26.7,26.7,0,0,1-5.548-1.256" fill="#f7b094"/>
            <g id="Group_19182" data-name="Group 19182">
              <path id="Path_38486" data-name="Path 38486" d="M412.793,284.416a.543.543,0,0,1-.525.618,121.35,121.35,0,0,1-18.952-.972,59.13,59.13,0,0,1-14.1-3.468c-3.415-1.36-8.121-6.285-10.02-10.882-3.317-8.036-6.12-14.268-8.356-22.669-1.523-5.72-3.245-10.716-.865-16.337.557-1.317,2.577-3.184,5.024-4.378a7.89,7.89,0,0,1,9.942,2.09c2,2.733,3.61,8.986,4.2,12.325,1.237,7.042,1.393,12.845,2.63,19.887.549,3.128,1.248,6.527,3.687,8.564a13.678,13.678,0,0,0,4.928,2.25c7.032,2.135,13.94,3.48,20.968,5.591a.546.546,0,0,1,.38.436Z" fill="#fab528"/>
              <path id="Path_38487" data-name="Path 38487" d="M412.523,284.82a29.28,29.28,0,0,0-.679-6.672c-.833-2.5-6.641-3.032-9.213-3.61q-5.765-1.293-11.408-3.063a17.373,17.373,0,0,1-6.188-2.95c-2.147-1.819-3.944-4.821-6.749-4.59" fill="none" stroke="#ea8f18" stroke-width="1"/>
              <path id="Path_38488" data-name="Path 38488" d="M380.631,267.027c1.127.144,2.148.347,3.275.491" fill="none" stroke="#ea8f18" stroke-width="1"/>
              <path id="Path_38489" data-name="Path 38489" d="M383.454,267.179c-1.712-2.375-1.647-5.467-2.037-8.368-1.148-8.545-1.567-17.643-4.411-25.782-1.3-3.717-3.167-7.237-8.144-7.463" fill="none" stroke="#ea8f18" stroke-width="1"/>
            </g>
          </g>
          <g id="Group_19184" data-name="Group 19184">
            <path id="Path_38490" data-name="Path 38490" d="M418.66,373.373c-4.6.145-8.369.259-12.968.4a8.75,8.75,0,0,1-4.133-.537c-.687-.337-1.372-.877-2.133-.737-.589.109-1,.6-1.545.843a3.922,3.922,0,0,1-1.548.235l-4.824.077a2.317,2.317,0,0,1-1.514-.327,1.889,1.889,0,0,1-.465-1.628,24.131,24.131,0,0,1,1.351-6.77,1.705,1.705,0,0,1,.973-1.206,2.042,2.042,0,0,1,1.453.358c1.818.961,4.208,1.646,5.894.495a6.79,6.79,0,0,1,1.3-.9,3.39,3.39,0,0,1,1.775-.016,61.825,61.825,0,0,1,14.716,4.525,6.337,6.337,0,0,1,2.778,1.955,2.1,2.1,0,0,1-.413,2.94" fill="#2a232d"/>
          </g>
        </g>
      </g>
    </g>
    <g id="Group_19227" data-name="Group 19227">
      <g id="Group_19196" data-name="Group 19196">
        <g id="Group_19193" data-name="Group 19193">
          <g id="Group_19188" data-name="Group 19188">
            <path id="Path_38491" data-name="Path 38491" d="M66.5,234.14a8.6,8.6,0,0,0,2.885,2.4,5.868,5.868,0,0,0,3.531.971A5.271,5.271,0,0,0,76,235.107L87.483,219.88C80.847,221.5,74,223.212,68.7,227.239a7.6,7.6,0,0,0-2.393,2.628c-.506,1.065-.839,3.024-.069,3.969Z" fill="#6ea652"/>
            <path id="Path_38492" data-name="Path 38492" d="M64.734,252.374a24.648,24.648,0,0,1,3.236-16.746,26.8,26.8,0,0,1,13.641-11.054" fill="none" stroke="#83ba63" stroke-width="1"/>
          </g>
          <path id="Path_38493" data-name="Path 38493" d="M68.509,266.844H52.276L47.132,250.25H73.139Z" fill="#edc2af"/>
          <rect id="Rectangle_11122" data-name="Rectangle 11122" width="29.553" height="2.699" transform="translate(45.359 249.377)" fill="#d2ab94"/>
          <g id="Group_19189" data-name="Group 19189">
            <path id="Path_38494" data-name="Path 38494" d="M38.7,270.27c-1.282-8.862-2.543-18.072.046-26.636a6.331,6.331,0,0,1,1.4-2.726,5.426,5.426,0,0,1,3.85-1.285,12.675,12.675,0,0,1,9.795,4.648,7.022,7.022,0,0,1,1.7,3.741,6.83,6.83,0,0,1-2.119,5.082,34.413,34.413,0,0,1-4.414,3.5,31.853,31.853,0,0,0-10.38,13.676" fill="#83ba63"/>
            <path id="Path_38495" data-name="Path 38495" d="M39.206,267.76a47.732,47.732,0,0,1,4.665-18.674c1.311-2.722,3.057-5.474,5.806-6.663a7.334,7.334,0,0,1,7.053.761,7.539,7.539,0,0,1,3.056,6.483" fill="none" stroke="#6ea652" stroke-width="1"/>
          </g>
          <g id="Group_19190" data-name="Group 19190">
            <path id="Path_38496" data-name="Path 38496" d="M59.266,231.591a11.785,11.785,0,0,1-3.391,4.114c-1.372,1.062-2.9,2.177-4.63,2.112-1.93-.072-3.481-1.574-4.829-2.981q-9.762-10.187-19.523-20.372c9.536,1.13,19.392,2.365,27.67,7.321a11.555,11.555,0,0,1,3.936,3.437c.956,1.481,1.89,4.322,1.059,5.868Z" fill="#6ea652"/>
            <path id="Path_38497" data-name="Path 38497" d="M61.987,249.666a31.132,31.132,0,0,0-6.641-18.841A30.67,30.67,0,0,0,38.618,220.1" fill="none" stroke="#83ba63" stroke-width="1"/>
          </g>
          <g id="Group_19191" data-name="Group 19191">
            <path id="Path_38498" data-name="Path 38498" d="M72.547,247.558c-1.436-.581-3.007.936-3,2.414s1.019,2.766,1.98,3.936l6.506,7.912A11.827,11.827,0,0,0,75.23,247.5c-.891-.758-2.687-1.153-2.944-.05" fill="#6ea652"/>
            <path id="Path_38499" data-name="Path 38499" d="M66.52,249.313a4.087,4.087,0,0,1,2.242-2.047,4.212,4.212,0,0,1,4.216.932,10.055,10.055,0,0,1,2.364,3.333A21.269,21.269,0,0,1,77.17,257.6" fill="none" stroke="#83ba63" stroke-width="1"/>
          </g>
          <g id="Group_19192" data-name="Group 19192">
            <path id="Path_38500" data-name="Path 38500" d="M73,406.482l-.842.081-3.436-139.98.842-.082Z" fill="#38303b"/>
            <path id="Path_38501" data-name="Path 38501" d="M48.06,406.482l.842.081,3.436-139.98L51.5,266.5Z" fill="#38303b"/>
            <rect id="Rectangle_11123" data-name="Rectangle 11123" width="25.302" height="2.405" rx="0.867" transform="translate(47.458 266.274)" fill="#38303b"/>
          </g>
        </g>
        <g id="Group_19195" data-name="Group 19195">
          <g id="Group_19194" data-name="Group 19194">
            <path id="Path_38502" data-name="Path 38502" d="M209.47,383.577q-.078-4.887-.157-9.774a12.233,12.233,0,0,0-.669-4.605,4.39,4.39,0,0,0-3.541-2.813,14.95,14.95,0,0,1-2.3.009c-1.89-.412-1.582-3.488-1.989-5.326-1.119-5.059-5.447-8.821-10.175-11.218a8.048,8.048,0,0,0-5.267-1.018c-1.78.4-3.341,2.072-3.022,3.82.232,1.265,1.316,2.212,1.854,3.387,1.222,2.668-.469,6.19,1.37,8.5,1.892,2.379,6.492,1.984,7.56,4.8a17.185,17.185,0,0,1,.36,2.955,6.262,6.262,0,0,0,3.653,4.076c1.714.846,3.612,1.283,5.358,2.064a14.324,14.324,0,0,1,6.558,5.924" fill="#6ea652"/>
            <path id="Path_38503" data-name="Path 38503" d="M204.964,385.78a18.18,18.18,0,0,0-2.85-12.669c-2.125-3.166-3.675-4.422-5.722-7.62-1.609-2.513-2.457-5.417-3.822-8.065s-3.476-5.182-6.429-5.912" fill="none" stroke="#83ba63" stroke-width="1"/>
            <path id="Path_38504" data-name="Path 38504" d="M210.7,382.28q.105-5.2.209-10.4a13.4,13.4,0,0,1,.715-4.9,4.628,4.628,0,0,1,3.683-3.01,15.258,15.258,0,0,0,2.381,0c1.961-.448,2.471-2.926,2.9-4.884a19.368,19.368,0,0,1,9.782-12.779,8.207,8.207,0,0,1,5.463-1.109c1.843.413,3.452,2.188,3.113,4.049-.246,1.347-1.374,2.36-1.937,3.613-1.279,2.844.457,6.583-1.46,9.052-1.972,2.54-6.737,2.144-7.856,5.148a18.723,18.723,0,0,0-.387,3.146,6.7,6.7,0,0,1-3.805,4.356c-1.78.908-3.749,1.382-5.562,2.222a15.179,15.179,0,0,0-6.823,6.335" fill="#6ea652"/>
            <path id="Path_38505" data-name="Path 38505" d="M211.661,382.634c-.5-3.993,1.816-7.812,4.548-10.769s5.995-5.48,8.131-8.892c1.68-2.682,2.572-5.776,4-8.6s3.626-5.531,6.69-6.322" fill="none" stroke="#83ba63" stroke-width="1"/>
            <path id="Path_38506" data-name="Path 38506" d="M209.637,379.316l-6.893-10.339a15.984,15.984,0,0,1-2.642-5.287,5.425,5.425,0,0,1,1.576-5.412,18.114,18.114,0,0,0,2.347-1.593c1.627-1.749.438-4.521-.474-6.728a22.743,22.743,0,0,1,.921-19.069,9.674,9.674,0,0,1,4.629-4.736c2.1-.827,4.9-.161,5.834,1.891.678,1.486.256,3.232.556,4.837.681,3.645,4.945,6.153,4.741,9.855-.211,3.809-5.179,6.6-4.232,10.3.314,1.225,1.248,2.189,1.766,3.344.969,2.162.354,5.059-.781,7.14s-3.123,2.88-4.337,4.916c-1.916,3.213-1.745,6.99-1.376,10.714" fill="#83ba63"/>
            <path id="Path_38507" data-name="Path 38507" d="M210.259,379.551a25.076,25.076,0,0,1-1.992-13.925c.5-3.474,1.741-6.832,1.969-10.335.3-4.547-1.119-9.007-1.787-13.515s-.432-9.56,2.584-12.976" fill="none" stroke="#6ea652" stroke-width="1"/>
          </g>
          <path id="Path_38508" data-name="Path 38508" d="M217.317,407H201.065l-5.151-29.91h26.038Z" fill="#edc2af"/>
          <rect id="Rectangle_11124" data-name="Rectangle 11124" width="29.589" height="4.865" transform="translate(194.139 375.513)" fill="#d2ab94"/>
        </g>
      </g>
      <line id="Line_40" data-name="Line 40" x2="224.936" transform="translate(24.702 407.253)" fill="none" stroke="#606060" stroke-width="1"/>
      <g id="Group_19226" data-name="Group 19226">
        <g id="Group_19198" data-name="Group 19198">
          <path id="Path_38509" data-name="Path 38509" d="M164.592,388.235q-.5,3.087-1,6.175a4.207,4.207,0,0,0-.078,1.209c.2,1.572,2,2.426,2.7,3.854a.94.94,0,0,1,.121.485c-.048.537-.754.7-1.3.719l-4.783.177c-.6.022-1.314-.008-1.65-.5a1.758,1.758,0,0,1-.225-.766q-.772-5.834-1.544-11.666" fill="#f7b094"/>
          <g id="Group_19197" data-name="Group 19197">
            <path id="Path_38510" data-name="Path 38510" d="M121.25,388.235q.491,3.087.982,6.175a4.316,4.316,0,0,1,.077,1.209c-.2,1.572-1.969,2.426-2.653,3.854a.948.948,0,0,0-.119.485c.047.537.742.7,1.278.719l4.707.177c.592.022,1.293-.008,1.622-.5a1.755,1.755,0,0,0,.222-.766q.761-5.834,1.52-11.666" fill="#f7b094"/>
            <path id="Path_38511" data-name="Path 38511" d="M105.241,407.056c3.905.149,7.1.267,11.008.416a6.933,6.933,0,0,0,3.511-.477c.585-.306,1.168-.8,1.814-.666.5.1.85.552,1.309.777a3.1,3.1,0,0,0,1.313.219l4.1.088a1.859,1.859,0,0,0,1.287-.294,1.817,1.817,0,0,0,.4-1.487,23.571,23.571,0,0,0-1.125-6.2c-.148-.456-.367-.964-.822-1.107a1.642,1.642,0,0,0-1.235.322c-1.547.874-3.578,1.491-5.006.433a5.712,5.712,0,0,0-1.1-.828,2.676,2.676,0,0,0-1.506-.021,49.786,49.786,0,0,0-12.51,4.086,5.407,5.407,0,0,0-2.364,1.779,2.015,2.015,0,0,0,.34,2.69" fill="#38303b"/>
            <path id="Path_38512" data-name="Path 38512" d="M113.1,399.557a3.289,3.289,0,0,1,1.241,2.3" fill="none" stroke="#4c9374" stroke-width="1"/>
            <path id="Path_38513" data-name="Path 38513" d="M116.624,398.419A6.648,6.648,0,0,1,118.3,401.3" fill="none" stroke="#4c9374" stroke-width="1"/>
          </g>
          <path id="Path_38514" data-name="Path 38514" d="M180.591,407.178c-3.9.149-7.1.267-11.008.416a6.946,6.946,0,0,1-3.511-.477c-.584-.306-1.167-.8-1.813-.666-.5.1-.851.552-1.31.776a3.114,3.114,0,0,1-1.313.22l-4.1.088a1.859,1.859,0,0,1-1.287-.294,1.815,1.815,0,0,1-.4-1.487,23.529,23.529,0,0,1,1.124-6.2c.148-.456.367-.964.822-1.107a1.64,1.64,0,0,1,1.236.322c1.546.873,3.577,1.491,5.005.433a5.712,5.712,0,0,1,1.1-.828,2.67,2.67,0,0,1,1.507-.021,49.793,49.793,0,0,1,12.509,4.086,5.4,5.4,0,0,1,2.364,1.778,2.016,2.016,0,0,1-.34,2.691" fill="#38303b"/>
          <path id="Path_38515" data-name="Path 38515" d="M172.73,399.679a3.289,3.289,0,0,0-1.241,2.3" fill="none" stroke="#4c9374" stroke-width="1"/>
          <path id="Path_38516" data-name="Path 38516" d="M169.208,398.541a6.661,6.661,0,0,0-1.672,2.878" fill="none" stroke="#4c9374" stroke-width="1"/>
          <path id="Path_38517" data-name="Path 38517" d="M136.094,295.435h1.656l11.415,47.727,6.066,45.586a.644.644,0,0,0,.619.559l9.592.268a.812.812,0,0,0,.831-.853l-2.26-47.482-8.35-62.328-3.049-14.427-34.6-.627-2.695,19.852,1.758,60.062,2.96,45.311a.874.874,0,0,0,.9.82l8.032-.276a.876.876,0,0,0,.843-.847L131.4,343.5Z" fill="#38303b"/>
          <path id="Path_38518" data-name="Path 38518" d="M115.551,283.17a17.6,17.6,0,0,0,4.774-8.945" fill="none" stroke="#dedfe0" stroke-width="0.709" opacity="0.34"/>
          <path id="Path_38519" data-name="Path 38519" d="M139.358,267.992a.305.305,0,0,0-.61,0q.111,3.717.04,7.437c-.023,1.173-.008,2.369-.127,3.537-.1.989-.611,2.278-1.788,2.192l-.246-14.438c-.007-.427-.664-.386-.657.038q.154,9.074.309,18.146c.007.427.665.386.657-.039l-.052-3.1a2.282,2.282,0,0,0,2.167-1.677,5.957,5.957,0,0,0,.258-1.663c.034-.7.051-1.392.069-2.088Q139.486,272.166,139.358,267.992Z" fill="#b7b7b7" opacity="0.42"/>
          <path id="Path_38520" data-name="Path 38520" d="M150.019,274.113c1.289,3.508,3.166,7.029,6.353,8.958" fill="none" opacity="0.34"/>
          <path id="Path_38521" data-name="Path 38521" d="M155.3,385.3c3.124.119,6.892.027,10.244.047" fill="none" stroke="#dedfe0" stroke-width="0.709" opacity="0.34"/>
          <path id="Path_38522" data-name="Path 38522" d="M120.462,386.248c2.785-.036,6.04-.235,9.022-.394" fill="none" stroke="#dedfe0" stroke-width="0.709" opacity="0.34"/>
        </g>
        <g id="Group_19211" data-name="Group 19211">
          <path id="Path_38523" data-name="Path 38523" d="M149.215,171.834c0,7.721-6.339,18.047-14.365,18.047s-14.2-10.031-14.2-17.751,6.172-11.242,14.2-11.242S149.215,164.114,149.215,171.834Z" fill="#38303b"/>
          <g id="Group_19201" data-name="Group 19201">
            <g id="Group_19199" data-name="Group 19199">
              <path id="Path_38524" data-name="Path 38524" d="M141.609,204.987a86.165,86.165,0,0,1-2.44-13.431,1.289,1.289,0,0,0-.083-.429.608.608,0,0,0-.483-.317c-1.51-.3-3.064.1-4.566-.276-1.228-.308-2.45-1.136-3.669-.758a.561.561,0,0,0-.334.229,1.232,1.232,0,0,0-.115.6c-.02.938-.009,1.876,0,2.814.032,2.864-1.381,10.394-1.349,13.258" fill="#f7b094"/>
            </g>
            <g id="Group_19200" data-name="Group 19200">
              <path id="Path_38525" data-name="Path 38525" d="M129.864,189.159a.562.562,0,0,1,.335-.229c1.218-.378,2.441.45,3.669.758,1.5.377,3.055-.029,4.566.276a.608.608,0,0,1,.483.317,1.293,1.293,0,0,1,.083.429c.119,1.5.461,2.866.58,4.371a8.324,8.324,0,0,1-4.4,2,5.967,5.967,0,0,1-5.419-3.175l-.015-1.335c-.01-.938-.021-1.876,0-2.814A1.232,1.232,0,0,1,129.864,189.159Z" fill="#e89c82"/>
            </g>
          </g>
          <g id="Group_19206" data-name="Group 19206">
            <g id="Group_19202" data-name="Group 19202">
              <path id="Path_38526" data-name="Path 38526" d="M123.73,180.188c0,8.56,5.907,15.5,11.17,15.5s11.171-6.939,11.171-15.5S140.164,165.15,134.9,165.15,123.73,171.628,123.73,180.188Z" fill="#f7b094"/>
            </g>
            <g id="Group_19205" data-name="Group 19205">
              <g id="Group_19203" data-name="Group 19203">
                <path id="Path_38527" data-name="Path 38527" d="M124.341,183.524a3.7,3.7,0,0,1-2.68-3.051,2.633,2.633,0,0,1,2.543-2.832" fill="#f7b094"/>
              </g>
              <g id="Group_19204" data-name="Group 19204">
                <path id="Path_38528" data-name="Path 38528" d="M145.112,183.524a3.7,3.7,0,0,0,2.68-3.051,2.634,2.634,0,0,0-2.544-2.832" fill="#f7b094"/>
              </g>
            </g>
          </g>
          <path id="Path_38529" data-name="Path 38529" d="M139.961,178.4c0,.862.381,1.561.851,1.561s.852-.7.852-1.561-.381-1.561-.852-1.561S139.961,177.543,139.961,178.4Z" fill="#38303b"/>
          <path id="Path_38530" data-name="Path 38530" d="M128.9,178.482c0,.862.381,1.561.851,1.561s.852-.7.852-1.561-.381-1.561-.852-1.561S128.9,177.62,128.9,178.482Z" fill="#38303b"/>
          <path id="Path_38531" data-name="Path 38531" d="M138.885,177.126a6.341,6.341,0,0,1,1.984-.245,5.45,5.45,0,0,1,1.883.286" fill="none" stroke="#38303b" stroke-width="0.709"/>
          <path id="Path_38532" data-name="Path 38532" d="M131.657,177.126a6.346,6.346,0,0,0-1.984-.245,5.453,5.453,0,0,0-1.884.286" fill="none" stroke="#38303b" stroke-width="0.709"/>
          <g id="Group_19207" data-name="Group 19207">
            <path id="Path_38533" data-name="Path 38533" d="M126.358,175.472a.1.1,0,0,0,.1.15c.123-.058.158-.194.5-.362a5.836,5.836,0,0,1,4.193-.2,7.6,7.6,0,0,0,.739.3c.11.021.227-.057.226-.12a.343.343,0,0,0-.1-.205,2.112,2.112,0,0,0-.962-.549,5.374,5.374,0,0,0-3.766.224,2.029,2.029,0,0,0-.926.754" fill="#38303b"/>
            <path id="Path_38534" data-name="Path 38534" d="M143.893,175.472a.1.1,0,0,1-.1.15c-.123-.058-.158-.194-.5-.362a5.836,5.836,0,0,0-4.193-.2,7.6,7.6,0,0,1-.739.3c-.11.021-.227-.057-.226-.12a.337.337,0,0,1,.1-.205,2.112,2.112,0,0,1,.962-.549,5.374,5.374,0,0,1,3.766.224,2.035,2.035,0,0,1,.926.754" fill="#38303b"/>
          </g>
          <path id="Path_38535" data-name="Path 38535" d="M131.851,187.466" fill="#e66e60"/>
          <path id="Path_38536" data-name="Path 38536" d="M135.528,177.6q.477,3.813.955,7.626a.221.221,0,0,1-.266.3l-1.6-.047" fill="none" stroke="#e89c82" stroke-width="1"/>
          <path id="Path_38537" data-name="Path 38537" d="M144.592,163.5c-3.9-3.937-15.638-3.846-16.494-3.731a7.363,7.363,0,0,1-1.91-.074L120,158.9a.84.84,0,0,0-.661.1c-.325.259-.318.838-.232,1.287a6.343,6.343,0,0,0,2.612,4.148,6.413,6.413,0,0,1-4.735-.293,4.863,4.863,0,0,0,1.213,4.087,5.913,5.913,0,0,0,3.392,1.665,10.948,10.948,0,0,0,7.972-1.851,1.775,1.775,0,0,0,.241,2.365,2.565,2.565,0,0,0,2.187.277,12.9,12.9,0,0,0,4.745-2.086,2.106,2.106,0,0,0,1.215,2.49,3.33,3.33,0,0,0,2.626-.516,12.15,12.15,0,0,0,3.534-3.042" fill="#38303b"/>
          <g id="Group_19210" data-name="Group 19210">
            <g id="Group_19208" data-name="Group 19208">
              <path id="Path_38538" data-name="Path 38538" d="M131.452,188.385c1.48,1.968,3.053,2.569,5.1,2.048a5.6,5.6,0,0,0,2.476-2.149,8.322,8.322,0,0,1-7.615-.02" fill="#e66e60"/>
            </g>
            <g id="Group_19209" data-name="Group 19209">
              <path id="Path_38539" data-name="Path 38539" d="M131.452,188.385a8.267,8.267,0,0,0,6.273.668,2.454,2.454,0,0,0,1.5-.833,14.843,14.843,0,0,1-8-.046Z" fill="#fff"/>
            </g>
          </g>
          <path id="Path_38540" data-name="Path 38540" d="M144.212,165.517c-1.8-3.233-9.593-6.793-10.182-7a7.123,7.123,0,0,1-1.25-.626l-3.941-2.307a.763.763,0,0,0-.458-.15c-.267.034-.377.335-.408.593a3.921,3.921,0,0,0,.906,2.945,6.139,6.139,0,0,1-3.077-1.606,2.436,2.436,0,0,0-.006,2.483,5.294,5.294,0,0,0,1.915,1.9,9.753,9.753,0,0,0,5.646,1.495c-.515.13-.619.849-.309,1.295a2.444,2.444,0,0,0,1.393.816,10.5,10.5,0,0,0,3.556.381,1.207,1.207,0,0,0,.311,1.66,3,3,0,0,0,1.84.54,7.893,7.893,0,0,0,2.944-.485" fill="#38303b"/>
        </g>
        <path id="Path_38541" data-name="Path 38541" d="M102.275,221.261a158.227,158.227,0,0,0-6.352,15.39,20.729,20.729,0,0,0-1.425,5.787c-.054,1.9.59,4.7,2.22,5.315,2.414.91,7.716,1.472,9.043-1.239,3.961-8.089,5.511-11.912,9.034-19.042" fill="#f7b094"/>
        <path id="Path_38542" data-name="Path 38542" d="M165,218.65c3.341,5.636,5.861,9.039,8.2,14.036a30.174,30.174,0,0,1,2.466,6.323,6.56,6.56,0,0,1-2.864,6.021c-2.311,1.148-5.906,1.434-7.5-1.13-4.754-7.65-7.483-13.355-11.7-20.1" fill="#f7b094"/>
        <path id="Path_38543" data-name="Path 38543" d="M144.57,202.648c-.105-.053-.21-.1-.314-.141a24.26,24.26,0,0,0-19.8-.623c-.031.012-.062.02-.093.033a22.964,22.964,0,0,0-14.343,21.113h47.305A22.886,22.886,0,0,0,144.57,202.648Z" fill="#f7b094"/>
        <g id="tshirt">
          <path id="tshirt-2" data-name="tshirt" d="M170.243,225.14a30.047,30.047,0,0,0-1.612-4.683c-2.213-6.269-7.152-10.555-9.455-12.666a23.4,23.4,0,0,0-2.041-1.485,22.064,22.064,0,0,0-3.48-2.047,53.031,53.031,0,0,0-11.754-3.59l.058-.146c-.1.033-.2.067-.295.1-.172-.032-.346-.069-.517-.1-.34-.062-.335.847-.651,1.248-1.933.833-.233,1.468-1.3,1.776-.563.092-3.5.579-3.908.593-.406-.014-2.041-.146-2.605-.237-1.07-.309-2.212-1.181-4.145-2.013-.316-.4-.489-1.246-.829-1.185-.171.031,1.01-.114.838-.082-.1-.033-.192-.067-.294-.1l-4.961,1.057a34.68,34.68,0,0,0-10.9,4.935c-.3.206-.6.425-.9.659-4.536,3.328-7.316,7.8-9.918,13.283a21.384,21.384,0,0,0-1.612,4.683c-.193,2.45,1.7,4.416,3.531,6.059a25.347,25.347,0,0,0,7.2,4.552l.09-.093c.426-.537.827-.7,1.192-1.254q.08.96.2,1.944,1.005,15.051,3.032,30c.145,1.06.416,2.3,1.366,2.722a3.923,3.923,0,0,0,1.686.077c12.914-.2,23.573.3,34.857-.339a1.884,1.884,0,0,0,1.159-.493c.415-.385.831,1.409.9.836,1.54-13.738,2.013-22.146,2.8-32.456q.153-1.164.246-2.3c.366.556.767.717,1.193,1.254l.089.093a25.352,25.352,0,0,0,7.205-4.552C168.539,229.556,170.436,227.59,170.243,225.14Z" fill="#f2e2c8"/>
          <g id="light_decoration" data-name="light decoration">
            <g id="Group_19219" data-name="Group 19219">
              <g id="Group_19212" data-name="Group 19212">
                <path id="Path_38544" data-name="Path 38544" d="M98.176,224.3c2.333,5.773,7.316,9.737,12.59,12.74a1.154,1.154,0,0,0,1.164-1.991c-4.685-2.667-9.443-6.2-11.53-11.362a1.188,1.188,0,0,0-1.418-.805,1.161,1.161,0,0,0-.806,1.418Z" fill="#347758"/>
              </g>
              <g id="Group_19213" data-name="Group 19213">
                <path id="Path_38545" data-name="Path 38545" d="M159.514,236.91c5-2.7,10.221-5.9,12.557-11.341a1.193,1.193,0,0,0-.414-1.578,1.161,1.161,0,0,0-1.577.414c-2.192,5.108-7.047,7.984-11.73,10.513-1.306.706-.143,2.7,1.164,1.992Z" fill="#347758"/>
              </g>
              <g id="Group_19214" data-name="Group 19214">
                <path id="Path_38546" data-name="Path 38546" d="M126.27,200.705c-.4,2.709,4.726,4.833,7.817,5.083,3.449.278,7.273-1.256,8.7-4.6a1.192,1.192,0,0,0-.413-1.578,1.161,1.161,0,0,0-1.578.414,6.1,6.1,0,0,1-5.721,3.49,11.784,11.784,0,0,1-4.2-.789c-.675-.246-2.156-.907-2.389-2.021-.12-.57,0-1.036-.578-1.376a.89.89,0,0,0-1.332.4Z" fill="#347758"/>
              </g>
              <g id="Group_19215" data-name="Group 19215">
                <path id="Path_38547" data-name="Path 38547" d="M112.254,235.529q-.2-8.226.119-16.454.091-2.317.223-4.632c.022-.387-.58-.386-.6,0q-.465,8.214-.414,16.449.015,2.319.072,4.637a.3.3,0,0,0,.6,0Z" fill="#4c9374"/>
              </g>
              <g id="Group_19216" data-name="Group 19216">
                <path id="Path_38548" data-name="Path 38548" d="M112.87,212.025a31.738,31.738,0,0,1,1.392-5.532c.128-.366-.452-.523-.58-.159a31.7,31.7,0,0,0-1.392,5.531c-.06.378.52.541.58.16Z" fill="#4c9374"/>
              </g>
              <g id="Group_19217" data-name="Group 19217">
                <path id="Path_38549" data-name="Path 38549" d="M158.712,235.323q-.531-8.034-1.523-16.03-.282-2.259-.6-4.515c-.053-.381-.633-.219-.58.16q1.108,7.9,1.765,15.85.186,2.267.336,4.535c.025.385.627.387.6,0Z" fill="#4c9374"/>
              </g>
              <g id="Group_19218" data-name="Group 19218">
                <path id="Path_38550" data-name="Path 38550" d="M156.235,211.168a20.855,20.855,0,0,0-1.393-5.835c-.142-.356-.724-.2-.58.159a20.348,20.348,0,0,1,1.372,5.676c.035.382.637.386.6,0Z" fill="#4c9374"/>
              </g>
            </g>
          </g>
        </g>
        <rect id="Rectangle_11125" data-name="Rectangle 11125" width="40.44" height="4.511" transform="translate(114.997 266.717)" fill="#f2e2c8"/>
        <g id="Group_19222" data-name="Group 19222">
          <g id="Group_19221" data-name="Group 19221">
            <rect id="Rectangle_11126" data-name="Rectangle 11126" width="12.726" height="27.625" rx="1.97" transform="matrix(1, -0.013, 0.013, 1, 128.423, 231.873)" fill="#347758"/>
            <g id="Group_19220" data-name="Group 19220" opacity="0.52">
              <path id="Path_38551" data-name="Path 38551" d="M136.338,236.659a1.293,1.293,0,1,1-.322-1.8A1.293,1.293,0,0,1,136.338,236.659Z" fill="#fff"/>
              <path id="Path_38552" data-name="Path 38552" d="M136.041,236.452a.931.931,0,1,1-.232-1.3A.931.931,0,0,1,136.041,236.452Z" fill="#dedfe0" opacity="0.54"/>
            </g>
          </g>
        </g>
        <g id="Group_19225" data-name="Group 19225">
          <path id="Path_38553" data-name="Path 38553" d="M175.063,236.755c2.983,8.749-4.8,15.029-12,16.677a113.568,113.568,0,0,1-19.285,2.946c-1.372.1-3.355.523-4.262-.544s.223-1.653.446-2.969c.084-.5.926-1.112,3.258-1.765,8.671-2.426,15.047-6.086,23.258-10.656" fill="#f7b094"/>
          <path id="Path_38554" data-name="Path 38554" d="M94.777,244.631c-.058,2.707,5.242,6.785,12.376,8.708a117.342,117.342,0,0,0,19.443,3.593c1.368.151,3.047.742,3.994-.29.934-1.017-.159-1.66-.332-2.983-.065-.5-.551-.681-2.856-1.422-8.571-2.757-15.487-7.072-23.76-11.028l-2.073,3.629-.968.892Z" fill="#f7b094"/>
          <path id="Path_38555" data-name="Path 38555" d="M147.24,255.2c-.394.151-1.063-.262-1.741-.72a12.37,12.37,0,0,0,.951-.915l.066-2.1a33.783,33.783,0,0,0-3.474-1.325q-.482-.189-.92-.359c-.116-.049-.233-.1-.348-.148l-.011.008c-1.407-.546-2.616-1.008-4.365-1.7a2.248,2.248,0,0,0-1.081-.228.883.883,0,0,0-.828.655c-.067.358.5.8.864,1.056.761.542,1.295.875,2.058,1.412.859.6,1.26,1,.967,1.419l-.008-.007c-.494.6-8.146.37-8.757.584-.347.122-.617.2-.477.606.28.808,2.3.418,3.244.622a26.585,26.585,0,0,0,3.407.582c.129.012.25.011.257.038a.967.967,0,0,1-.421.131,73.34,73.34,0,0,1-8.268.287.409.409,0,0,0-.317.674,4.846,4.846,0,0,0,2.814,1.183,26.248,26.248,0,0,0,5.389.224c-2.494.691-5.64.439-5.59,1.084a1.677,1.677,0,0,0,1.117.614h0a15.587,15.587,0,0,0,4.237.124l-.586.185a1.015,1.015,0,0,0-.623.4.312.312,0,0,0,.208.492c1.249.316,7.608-.389,10.516-2.773a9.7,9.7,0,0,0,.963-1.039A2.589,2.589,0,0,0,147.24,255.2Z" fill="#f7b094"/>
          <g id="Group_19223" data-name="Group 19223" opacity="0.55">
            <path id="Path_38556" data-name="Path 38556" d="M134.828,259.744c.363,0,1.946-.045,2.463-.13a7.157,7.157,0,0,0,1.918-.466c.467-.182.667-.492.648-.8-.026-.441-.645-.555-.933-.674a4.264,4.264,0,0,0,2.851-1.27,1.339,1.339,0,0,0,.286-.856c0-.561-.977-.837-1.53-.933a14.5,14.5,0,0,0-2.1-.181,10.364,10.364,0,0,0,1.634-.83c.388-.259.7-.409.8-.752a.826.826,0,0,0-.026-.777.877.877,0,0,0-.674-.389c-.577-.057-.155,0-.7-.052a.591.591,0,0,1-.077.674l-.934.233c-.447.539-5.742.4-7.362.389-.114.362-.677-.272-.5.077a2.922,2.922,0,0,0,.309.469,10.715,10.715,0,0,0,1.854.569,26.555,26.555,0,0,0,3.407.582c.129.012.936.065.944.092s-1.116.142-1.27.156c-1.321.119-2.448.121-3.74.17a5.352,5.352,0,0,1,.648,2.135c.951.041,1.916.035,2.872-.016a17.285,17.285,0,0,1-2.855.474c0,.47-.045.94-.047,1.408a26.491,26.491,0,0,0,2.669-.059l-.586.185C134.563,259.243,134.706,259.744,134.828,259.744Z" fill="#e89c82"/>
          </g>
          <g id="Group_19224" data-name="Group 19224">
            <path id="Path_38557" data-name="Path 38557" d="M128.34,256.9c-.9-.074-1.783-.142-2.671-.257-.587-.077.1-2.6-.508-2.738-.772-.17-2.839,2.032-3.673,1.713a2.524,2.524,0,0,0,.957,1.231c3.731,2.433,12.8,3.042,14.61,2.424" fill="#f7b094"/>
            <path id="Path_38558" data-name="Path 38558" d="M122.212,251.886c1.54-.757,3.183-1.129,4.743-1.832,1.25.976.357,1.389,1.607,2.366a12.08,12.08,0,0,1,1.508.854,7.408,7.408,0,0,1,.564,1.888c-.461,1.568-.082,1.832.644,3.1a13.652,13.652,0,0,1-9-4.282" fill="#f7b094"/>
            <path id="Path_38559" data-name="Path 38559" d="M124.842,250.893c2.547-1.007,3.94-1.524,6.488-2.53a2.25,2.25,0,0,1,1.081-.228.882.882,0,0,1,.828.655c.067.358-.5.8-.864,1.056-.761.542-1.294.874-2.058,1.412-1.027.722-1.412,1.147-.724,1.668" fill="#f7b094"/>
            <path id="Path_38560" data-name="Path 38560" d="M131.185,257.109c2.51,1.313,6.951.811,6.892,1.576a1.674,1.674,0,0,1-1.117.614c-4.007.518-10.216-2.243-14.6-3.455" fill="#f7b094"/>
            <path id="Path_38561" data-name="Path 38561" d="M126.587,255.023l2.771-2.353c.494.6,8.015-.557,8.626-.342.348.121.617.2.477.6-.28.808-2.167,1.345-3.113,1.549a26.546,26.546,0,0,1-3.407.581c-.129.012-.249.012-.257.039a.97.97,0,0,0,.421.13,73.361,73.361,0,0,0,8.269.288.409.409,0,0,1,.316.674,4.846,4.846,0,0,1-2.814,1.183,30.213,30.213,0,0,1-9.311-.2l.437-1.994C128.206,255.164,127.4,255.114,126.587,255.023Z" fill="#f7b094"/>
            <path id="Path_38562" data-name="Path 38562" d="M133.721,260.5c-1.248.317-7.608-.389-10.516-2.772a8.539,8.539,0,0,1-1.648-2.059c.665.342,2.529-1.035,3.154-.825.489.164-.25,2.257.229,2.371.725.173,1.446.305,2.185.444l6.181,1.951a1.023,1.023,0,0,1,.624.4A.313.313,0,0,1,133.721,260.5Z" fill="#f7b094"/>
          </g>
        </g>
      </g>
    </g>
  </g>
</svg>
