<svg xmlns="http://www.w3.org/2000/svg" width="100.418" height="100.416" viewBox="0 0 100.418 100.416">
  <g id="noun-award-1016691" transform="translate(0)">
    <path id="Path_38563" data-name="Path 38563" d="M222.625,130.249A30.125,30.125,0,1,0,192.5,100.125,30.159,30.159,0,0,0,222.625,130.249Zm0-56.9a26.778,26.778,0,1,1-26.778,26.778A26.809,26.809,0,0,1,222.625,73.347Z" transform="translate(-172.417 -59.957)" fill="#347758"/>
    <path id="Path_38564" data-name="Path 38564" d="M269.079,178.489,267.6,188.735a1.672,1.672,0,0,0,2.524,1.668l9.1-5.526,9.1,5.526a1.672,1.672,0,0,0,2.524-1.668l-1.476-10.246,6.1-6.1a1.673,1.673,0,0,0-.909-2.833l-9.2-1.535-4.639-9.279a1.742,1.742,0,0,0-2.994,0l-4.639,9.279-9.2,1.535a1.673,1.673,0,0,0-.908,2.833Zm5.4-7.309a1.677,1.677,0,0,0,1.222-.9l3.523-7.048,3.523,7.048a1.675,1.675,0,0,0,1.222.9l6.833,1.139-4.395,4.395a1.673,1.673,0,0,0-.474,1.423l1.089,7.565-6.933-4.212a1.637,1.637,0,0,0-.865-.244,1.659,1.659,0,0,0-.869.244L271.42,185.7l1.089-7.565a1.673,1.673,0,0,0-.474-1.423l-4.395-4.395Z" transform="translate(-229.016 -132.236)" fill="#fab528"/>
    <path id="Path_38565" data-name="Path 38565" d="M88.649,104.436l9.248,3.083,3.083,9.248a1.678,1.678,0,0,0,1.2,1.1,1.754,1.754,0,0,0,.383.043,1.673,1.673,0,0,0,1.183-.49l21.562-21.562a40.057,40.057,0,0,0,24.8,0l21.562,21.562a1.674,1.674,0,0,0,2.772-.655l3.083-9.248,9.248-3.083a1.674,1.674,0,0,0,.654-2.772L168.814,83.045a40.166,40.166,0,1,0-62.2,0L88,101.664a1.674,1.674,0,0,0,.654,2.772Zm77.946-18.875,16.555,16.555-7.473,2.49a1.675,1.675,0,0,0-1.058,1.058l-2.49,7.473L153.558,94.57c.069-.03.132-.069.2-.1q1.656-.725,3.234-1.587c.135-.074.266-.154.4-.231q1.509-.851,2.936-1.821c.167-.114.328-.235.492-.351.9-.636,1.777-1.3,2.622-2.01.191-.161.377-.326.564-.489q1.2-1.044,2.321-2.176c.088-.086.182-.159.266-.247ZM137.713,20.842a36.8,36.8,0,0,1,27.315,61.479c-.208.231-.424.452-.637.676q-.67.7-1.375,1.374c-.236.224-.472.448-.713.666-.267.241-.541.474-.815.706s-.53.444-.8.66-.524.42-.793.622c-.367.276-.74.544-1.116.807q-.447.314-.9.614c-.425.279-.856.554-1.292.815-.239.144-.483.279-.728.418q-.565.322-1.139.622c-.243.127-.487.254-.733.377-.457.226-.92.44-1.387.648-.17.075-.336.158-.507.229-.631.267-1.272.517-1.918.75a36.782,36.782,0,0,1-24.91,0c-.646-.232-1.285-.48-1.916-.75-.173-.074-.34-.155-.51-.231-.467-.208-.929-.421-1.386-.648-.246-.123-.489-.248-.731-.375-.385-.2-.765-.41-1.142-.625-.243-.139-.487-.274-.726-.418-.437-.261-.867-.536-1.292-.815q-.457-.3-.9-.614c-.377-.263-.75-.529-1.116-.807-.267-.2-.53-.413-.792-.622s-.539-.437-.8-.661-.545-.463-.811-.7c-.243-.217-.479-.445-.717-.669q-.7-.668-1.374-1.372c-.214-.224-.43-.447-.637-.676a36.794,36.794,0,0,1,27.313-61.476ZM108.831,85.561c.084.087.177.161.263.246q1.117,1.134,2.321,2.176c.189.164.374.329.564.489.845.706,1.722,1.374,2.622,2.01.166.117.326.236.492.351q1.423.974,2.936,1.821c.134.075.264.155.4.231,1.049.578,2.131,1.1,3.234,1.587.069.03.132.069.2.1L103.3,113.139l-2.49-7.473a1.675,1.675,0,0,0-1.058-1.058l-7.473-2.49Z" transform="translate(-87.505 -17.494)" fill="#347758"/>
    <path id="Path_38566" data-name="Path 38566" d="M341.25,113.75H344.6v5.021H341.25Z" transform="translate(-292.716 -95.339)" fill="#fab528"/>
    <path id="Path_38567" data-name="Path 38567" d="M387.56,128.41l3.346-3.346,2.367,2.367-3.346,3.346Z" transform="translate(-330.169 -104.489)" fill="#fab528"/>
    <path id="Path_38568" data-name="Path 38568" d="M282.56,127.432l2.367-2.367,3.346,3.346-2.367,2.367Z" transform="translate(-245.252 -104.49)" fill="#fab528"/>
  </g>
</svg>
