<svg xmlns="http://www.w3.org/2000/svg" width="105.023" height="100.25" viewBox="0 0 105.023 100.25">
  <g id="noun-return-4025394" transform="translate(-93.332 -34.996)">
    <path id="Path_38575" data-name="Path 38575" d="M102.88,35a9.58,9.58,0,0,0-9.548,9.548V106.6a9.58,9.58,0,0,0,9.548,9.548h31.789a2.387,2.387,0,0,0,0-4.774H102.88a4.711,4.711,0,0,1-4.773-4.773v-54.9h23.869V73.187h0a2.387,2.387,0,0,0,4.075,1.687l7.86-7.86,7.86,7.86a2.387,2.387,0,0,0,4.074-1.687V51.705h23.869V71.043h0a2.387,2.387,0,0,0,4.773,0v-26.5A9.58,9.58,0,0,0,164.939,35Zm0,4.773h19.095v7.161H98.107V44.545a4.711,4.711,0,0,1,4.773-4.773Zm23.869,0H141.07V67.425L135.6,61.952h0a2.387,2.387,0,0,0-3.375,0l-5.473,5.474Zm19.095,0h19.095a4.711,4.711,0,0,1,4.773,4.773v2.387H145.843Z" transform="translate(0)" fill="#347758"/>
    <path id="Path_38576" data-name="Path 38576" d="M154.052,303.33a2.387,2.387,0,0,0,0,4.774h14.321a2.387,2.387,0,0,0,0-4.774Z" transform="translate(-46.399 -213.436)" fill="#347758"/>
    <path id="Path_38577" data-name="Path 38577" d="M154.052,350a2.387,2.387,0,1,0,0,4.774h21.482a2.387,2.387,0,0,0,0-4.774Z" transform="translate(-46.399 -250.557)" fill="#347758"/>
    <path id="Path_38578" data-name="Path 38578" d="M261.441,305.719a2.387,2.387,0,1,1-.7-1.688A2.388,2.388,0,0,1,261.441,305.719Z" transform="translate(-129.919 -213.437)" fill="#347758"/>
    <path id="Path_38579" data-name="Path 38579" d="M355.313,245a28.642,28.642,0,1,0,28.642,28.642A28.678,28.678,0,0,0,355.313,245Zm0,4.773a23.869,23.869,0,1,1-23.869,23.869A23.833,23.833,0,0,1,355.313,249.773Z" transform="translate(-185.6 -167.039)" fill="#fab528"/>
    <path id="Path_38580" data-name="Path 38580" d="M405.948,315.632l-6.5,6.513a2.387,2.387,0,0,0,0,3.375l6.5,6.512a2.388,2.388,0,0,0,3.38-3.375l-2.242-2.242h11.4a6.1,6.1,0,0,1,0,12.2H403.094a2.387,2.387,0,1,0,0,4.774h15.389a10.876,10.876,0,0,0,0-21.752h-11.79l2.634-2.634a2.387,2.387,0,0,0,0-3.375,2.342,2.342,0,0,0-3.375,0Z" transform="translate(-242.929 -222.65)" fill="#fab528"/>
  </g>
</svg>
