<svg id="instagram" xmlns="http://www.w3.org/2000/svg" width="30.335" height="30.335" viewBox="0 0 30.335 30.335">
  <g id="Group_17197" data-name="Group 17197" transform="translate(0 0)">
    <g id="Group_17196" data-name="Group 17196" transform="translate(0)">
      <path id="Path_35215" data-name="Path 35215" d="M22.756,0H7.589A7.606,7.606,0,0,0,.005,7.584V22.752a7.607,7.607,0,0,0,7.584,7.584H22.756a7.607,7.607,0,0,0,7.584-7.584V7.584A7.606,7.606,0,0,0,22.756,0Zm5.056,22.752a5.061,5.061,0,0,1-5.056,5.056H7.589a5.062,5.062,0,0,1-5.056-5.056V7.584A5.062,5.062,0,0,1,7.589,2.528H22.756a5.061,5.061,0,0,1,5.056,5.056V22.752Z" transform="translate(-0.005)" fill="#1d1d1d"/>
    </g>
  </g>
  <g id="Group_17199" data-name="Group 17199" transform="translate(21.488 5.056)">
    <g id="Group_17198" data-name="Group 17198">
      <circle id="Ellipse_10454" data-name="Ellipse 10454" cx="1.896" cy="1.896" r="1.896" fill="#1d1d1d"/>
    </g>
  </g>
  <g id="Group_17201" data-name="Group 17201" transform="translate(7.584 7.584)">
    <g id="Group_17200" data-name="Group 17200">
      <path id="Path_35216" data-name="Path 35216" d="M109.989,102.4a7.584,7.584,0,1,0,7.584,7.584A7.583,7.583,0,0,0,109.989,102.4Zm0,12.64a5.056,5.056,0,1,1,5.056-5.056A5.056,5.056,0,0,1,109.989,115.04Z" transform="translate(-102.405 -102.4)" fill="#1d1d1d"/>
    </g>
  </g>
</svg>
