<svg xmlns="http://www.w3.org/2000/svg" width="68.501" height="57.208" viewBox="0 0 68.501 57.208">
  <g id="left-quote" transform="translate(0 -7.858)">
    <g id="Group_18548" data-name="Group 18548" transform="translate(0 7.858)">
      <path id="Path_73839" data-name="Path 73839" d="M21.925,33.784a18.151,18.151,0,0,0-5.015-.732A15.761,15.761,0,0,0,10.62,34.34C12.2,28.553,16,18.567,23.564,17.443a1.8,1.8,0,0,0,1.466-1.293l1.653-5.914A1.8,1.8,0,0,0,25.2,7.973a12.558,12.558,0,0,0-1.691-.115c-9.08,0-18.073,9.478-21.868,23.048C-.59,38.868-1.243,50.837,4.244,58.372c3.07,4.216,7.55,6.467,13.314,6.692h.07a15.937,15.937,0,0,0,4.3-31.281Z" transform="translate(0 -7.858)" fill="#121d27"/>
      <path id="Path_73840" data-name="Path 73840" d="M80.131,41.31a15.974,15.974,0,0,0-9.581-7.526,18.15,18.15,0,0,0-5.015-.732,15.765,15.765,0,0,0-6.289,1.288c1.581-5.787,5.378-15.773,12.944-16.9a1.8,1.8,0,0,0,1.466-1.293l1.653-5.914a1.8,1.8,0,0,0-1.486-2.263,12.542,12.542,0,0,0-1.691-.115c-9.08,0-18.073,9.478-21.868,23.048-2.227,7.962-2.88,19.931,2.608,27.467,3.07,4.215,7.55,6.467,13.313,6.691h.071A15.937,15.937,0,0,0,80.131,41.31Z" transform="translate(-13.686 -7.858)" fill="#121d27"/>
    </g>
  </g>
</svg>
