<svg id="_x31_0.Linkedin" xmlns="http://www.w3.org/2000/svg" width="31.2" height="31.201" viewBox="0 0 31.2 31.201">
  <path id="Path_35217" data-name="Path 35217" d="M58.463,56.634V45.206c0-5.616-1.209-9.906-7.761-9.906a6.772,6.772,0,0,0-6.123,3.354H44.5V35.807H38.3V56.634h6.474V46.3c0-2.73.507-5.343,3.861-5.343,3.315,0,3.354,3.081,3.354,5.5v10.14h6.474Z" transform="translate(-27.263 -25.433)" fill="#1d1d1d"/>
  <path id="Path_35218" data-name="Path 35218" d="M11.3,36.6h6.474V57.427H11.3Z" transform="translate(-10.793 -26.226)" fill="#1d1d1d"/>
  <path id="Path_35219" data-name="Path 35219" d="M13.744,10a3.764,3.764,0,1,0,3.744,3.744A3.745,3.745,0,0,0,13.744,10Z" transform="translate(-10 -10)" fill="#1d1d1d"/>
</svg>
