<svg xmlns="http://www.w3.org/2000/svg" width="33.728" height="27.448" viewBox="0 0 33.728 27.448">
  <path id="_x30_4.Twitter" d="M43.628,20.746a14.184,14.184,0,0,1-3.963,1.1A6.745,6.745,0,0,0,42.7,18.006a14.561,14.561,0,0,1-4.385,1.686,6.92,6.92,0,0,0-11.973,4.722,6.322,6.322,0,0,0,.169,1.56A19.463,19.463,0,0,1,12.3,18.765,6.939,6.939,0,0,0,14.411,28a6.639,6.639,0,0,1-3.12-.843,6.987,6.987,0,0,0,5.523,6.872,7.588,7.588,0,0,1-3.12.126,6.943,6.943,0,0,0,6.451,4.806A13.93,13.93,0,0,1,9.9,41.828a19.5,19.5,0,0,0,10.624,3.12c12.732,0,19.647-10.541,19.647-19.648a6.227,6.227,0,0,0-.042-.885,13.724,13.724,0,0,0,3.5-3.668Z" transform="translate(-9.9 -17.5)" fill="#1d1d1d"/>
</svg>
